<svg xmlns="http://www.w3.org/2000/svg" xmlns:xlink="http://www.w3.org/1999/xlink" xmlns:lucid="lucid" width="1627.73" height="1742"><g transform="translate(261 -99)" lucid:page-tab-id="~xKpTmVvu.z."><path d="M-500 0h2000v2000H-500z" fill="#fff"/><path d="M640.98 460.5H639v-81.44H641zm0-102.77H639V322H641z" stroke="#1071e5" stroke-width=".05" fill="#1071e5"/><path d="M640 321h.98v1.03H639v-1.05z" fill="#1071e5"/><path stroke="#1071e5" stroke-width=".05" fill="#1071e5"/><path d="M640 475.76l-4.63-14.26h9.26z" fill="#1071e5"/><path d="M640 478.92l-5.98-18.4h11.96zm-3.3-16.45l3.3 10.14 3.3-10.13z" stroke="#1071e5" stroke-width=".05" fill="#1071e5"/><use xlink:href="#a" transform="matrix(1,0,0,1,570.0740740740741,357.7264568653838) translate(0 14.222222222222223)"/><use xlink:href="#b" transform="matrix(1,0,0,1,570.0740740740741,357.7264568653838) translate(90.61728395061729 14.222222222222223)"/><use xlink:href="#c" transform="matrix(1,0,0,1,570.0740740740741,357.7264568653838) translate(100.49382716049384 14.222222222222223)"/><path d="M740 220c0 55.23-44.77 100-100 100s-100-44.77-100-100 44.77-100 100-100 100 44.77 100 100z" stroke="#003d87" stroke-width="2" fill="#6db1ff"/><use xlink:href="#d" transform="matrix(1,0,0,1,545,124.99999999999999) translate(17.25 86.025)"/><use xlink:href="#e" transform="matrix(1,0,0,1,545,124.99999999999999) translate(85.05000000000001 86.025)"/><use xlink:href="#f" transform="matrix(1,0,0,1,545,124.99999999999999) translate(95.05000000000001 86.025)"/><use xlink:href="#g" transform="matrix(1,0,0,1,545,124.99999999999999) translate(27.174999999999997 107.625)"/><use xlink:href="#h" transform="matrix(1,0,0,1,545,124.99999999999999) translate(94.025 107.625)"/><path d="M483.72 412.65l-2.95 2.45-2.6 2.35-2.35 2.3-2.13 2.27-1.96 2.27-1.8 2.27-1.67 2.3-1.56 2.36-1.45 2.42-1.36 2.5-1.3 2.6-1.2 2.7-1.12 2.85-1.04 3-.96 3.2-.87 3.45-.77 3.7-.52 3.08-1.9-.32.5-3.1v-.02l.8-3.75v-.02l.9-3.5v-.02l.98-3.25v-.02l1.07-3.06v-.04l1.15-2.88v-.04l1.23-2.75v-.02h.02l1.3-2.63v-.04h.02l1.38-2.53v-.02h.02v-.02l1.48-2.45h.02v-.02l1.6-2.4v-.02l1.7-2.35h.02v-.02l1.83-2.3v-.04h.02l1.98-2.3v-.02h.02l2.16-2.32h.02v-.02h.02l2.37-2.33h.02v-.02h.02l2.64-2.4h.02v-.02l3-2.46v-.02h.02l.73-.56h3.2zm97.5-110.18l-.2 5.16v.04l-.46 5.52v.02l-.62 5v.02l-.77 4.56v.02l-.88 4.18v.02h-.02v.02l-.98 3.86v.02l-1.1 3.6v.04l-1.17 3.36v.04l-1.26 3.17v.04l-1.35 3v.02l-1.43 2.88h-.02v.04l-1.52 2.75v.02h-.02l-1.6 2.67v.02h-.02l-1.7 2.58h-.02v.02l-1.84 2.54v.02h-.02l-1.96 2.5h-.02v.02l-2.12 2.45v.02h-.02l-2.3 2.46v.02h-.02v.02l-2.52 2.47v.02h-.02l-2.8 2.53v.02h-.02l-3.13 2.6v.02h-.02l-3.6 2.75h-.04v.02l-4.3 3h-.04l-5.44 3.48h-.02v.02h-.02l-8.14 4.7h-.02l-4.3 2.36h-4.1l7.46-4.06 8.1-4.68 5.42-3.45 4.26-2.97 3.58-2.72 3.1-2.57 2.75-2.5 2.48-2.44 2.28-2.42 2.08-2.42 1.94-2.44 1.8-2.5 1.68-2.54 1.58-2.62 1.5-2.72 1.4-2.83 1.3-2.97 1.24-3.13 1.15-3.33 1.06-3.55 1-3.82.85-4.13.75-4.5.62-4.94.45-5.46.2-5.15z" stroke="#cc4e00" stroke-width=".05" fill="#cc4e00"/><path d="M581.23 302.1v.4l-1.96-.08.07-1.67z" fill="#cc4e00"/><path stroke="#cc4e00" stroke-width=".05" fill="#cc4e00"/><path d="M459.7 461.9l-5.67 13.87-3.57-14.56z" fill="#cc4e00"/><path d="M461.1 461l-7.3 17.92-4.6-18.8zm-6.84 11.63l4.03-9.87-6.58-.48z" stroke="#cc4e00" stroke-width=".05" fill="#cc4e00"/><use xlink:href="#i" transform="matrix(1,0,0,1,440.68741935508956,389.22629859481367) translate(0 14.222222222222223)"/><use xlink:href="#j" transform="matrix(1,0,0,1,440.68741935508956,389.22629859481367) translate(48.2962962962963 14.222222222222223)"/><path d="M347.5 486a6 6 0 0 1 6-6h573a6 6 0 0 1 6 6v228a6 6 0 0 1-6 6h-573a6 6 0 0 1-6-6z" fill-opacity="0"/><path d="M373.6 480h20.1m10.06 0h20.1m10.06 0h20.1m10.06 0h20.1m10.06 0h20.1m10.05 0h20.1m10.05 0h20.1m10.06 0h20.12m10.05 0h20.1m10.06 0h20.1m10.05 0h20.1m10.06 0h20.1m10.06 0h20.1m10.06 0h20.1m10.06 0h20.1m10.05 0h20.1m10.06 0h20.1m10.06 0h20.1m10.05 0h10.05a6 6 0 0 1 6 6v9.5m0 9.5v19m0 9.5v19m0 9.5v19m0 9.5v19m0 9.5v19m0 9.5v19m0 9.5v19m0 9.5v9.5a6 6 0 0 1-6 6h-10.05m-10.06 0h-20.1m-10.06 0h-20.1m-10.06 0h-20.1m-10.06 0h-20.1m-10.06 0h-20.1m-10.05 0h-20.1m-10.05 0h-20.1m-10.06 0h-20.12m-10.05 0h-20.1m-10.06 0h-20.1m-10.05 0h-20.1m-10.06 0h-20.1m-10.06 0h-20.1m-10.06 0h-20.1m-10.06 0h-20.1m-10.05 0h-20.1m-10.06 0h-20.1m-10.06 0h-20.1m-10.05 0H353.5a6 6 0 0 1-6-6v-9.5m0-9.5v-19m0-9.5v-19m0-9.5v-19m0-9.5v-19m0-9.5v-19m0-9.5v-19m0-9.5v-19m0-9.5V486a6 6 0 0 1 6-6h10.05" stroke="#3a414a" stroke-width="2" fill="none"/><use xlink:href="#k" transform="matrix(1,0,0,1,363.5,496) translate(164.48177083333331 15.540364583333334)"/><use xlink:href="#l" transform="matrix(1,0,0,1,363.5,496) translate(220.49088541666666 15.540364583333334)"/><use xlink:href="#m" transform="matrix(1,0,0,1,363.5,496) translate(254.09635416666666 15.540364583333334)"/><path d="M798.87 409.64h.02v.02l2.9 2.77h.02v.02l2.6 2.7h.02v.02h.02l2.35 2.65h.02v.02h.02l2.14 2.64h.02v.02l1.98 2.65.02.02 1.84 2.68v.02h.02l1.7 2.73v.02h.02l1.58 2.8v.02h.02l1.47 2.87v.04h.02l1.37 2.97v.04l1.3 3.1v.04l1.2 3.24v.04l1.1 3.42v.04l1 3.63v.04l.88 3.86v.04l.77 4.17v.02l.2 1.43-1.93.27-.2-1.4-.76-4.13-.86-3.83-.98-3.6-1.07-3.37-1.18-3.2-1.26-3.06-1.36-2.92-1.45-2.82-1.56-2.75-1.68-2.67-1.8-2.63-1.96-2.6-2.12-2.6-2.33-2.62-2.55-2.65-2.88-2.74-1.68-1.47h2.96zm-97.8-103.3l.46 4.56.6 4.2.7 3.87.82 3.6.92 3.4 1.02 3.2 1.1 3.03 1.2 2.9 1.28 2.8 1.4 2.68 1.48 2.62 1.6 2.57 1.73 2.52 1.87 2.5 2.04 2.5 2.25 2.52 2.5 2.57 2.78 2.64 3.18 2.8 3.75 2.98 4.55 3.35 6.05 4.06 10.64 6.5 12.76 7.56h-3.82l-9.95-5.9h-.02l-10.67-6.5v-.02h-.02l-6.08-4.1h-.02v-.02l-4.6-3.38h-.02v-.02h-.02l-3.76-3.03h-.02v-.02l-3.23-2.8-.02-.02-2.82-2.7h-.02v-.02l-2.52-2.6h-.02v-.02l-2.28-2.56v-.02h-.02l-2.08-2.55h-.02v-.02l-1.9-2.54h-.02v-.02l-1.76-2.57v-.02H712l-1.63-2.6v-.02h-.02l-1.52-2.67v-.02h-.02l-1.4-2.74v-.02h-.02l-1.3-2.84v-.02h-.02l-1.22-2.95v-.02l-1.13-3.08v-.04l-1.04-3.24v-.04l-.94-3.43v-.04l-.84-3.65v-.04l-.72-3.92v-.04l-.6-4.23v-.04l-.46-4.6v-.04l-.23-4.05 1.95-.1z" stroke="#008a0e" stroke-width=".05" fill="#008a0e"/><path d="M700.85 302.33l-1.94.1v-.37l1.86-1.4z" fill="#008a0e"/><path stroke="#008a0e" stroke-width=".05" fill="#008a0e"/><path d="M825.6 475.77l-5.62-13.9 9.24-.66z" fill="#008a0e"/><path d="M825.83 478.92L818.57 461l11.92-.85zm-4.45-16.17l4 9.88 2.57-10.35z" stroke="#008a0e" stroke-width=".05" fill="#008a0e"/><use xlink:href="#n" transform="matrix(1,0,0,1,726.3454756759924,388.29497512252) translate(0 14.222222222222223)"/><use xlink:href="#b" transform="matrix(1,0,0,1,726.3454756759924,388.29497512252) translate(53.135802469135804 14.222222222222223)"/><use xlink:href="#o" transform="matrix(1,0,0,1,726.3454756759924,388.29497512252) translate(63.01234567901235 14.222222222222223)"/><path d="M481.88 546a6 6 0 0 1 6-6h304.25a6 6 0 0 1 6 6v128a6 6 0 0 1-6 6H487.88a6 6 0 0 1-6-6z" stroke="#003d87" stroke-width="2" fill="#edf5ff"/><use xlink:href="#p" transform="matrix(1,0,0,1,486.875,545) translate(45.749999999999986 59.0875)"/><use xlink:href="#q" transform="matrix(1,0,0,1,486.875,545) translate(143.6 59.0875)"/><use xlink:href="#r" transform="matrix(1,0,0,1,486.875,545) translate(169.55 59.0875)"/><use xlink:href="#s" transform="matrix(1,0,0,1,486.875,545) translate(81.1 80.6875)"/><use xlink:href="#t" transform="matrix(1,0,0,1,486.875,545) translate(167.95 80.6875)"/><path d="M-12.5 946a6 6 0 0 1 6-6h1293a6 6 0 0 1 6 6v295.7a6 6 0 0 1-6 6H-6.5a6 6 0 0 1-6-6z" fill-opacity="0"/><path d="M13.55 940H33.6m10.02 0h20.04m10.03 0h20.03m10.03 0h20.04m10.03 0h20.04m10.03 0h20.04m10.03 0H214m10.03 0h20.05m10.02 0h20.05m10.02 0h20.05m10.02 0h20.05m10 0h20.06m10.02 0h20.05m10.02 0h20.05m10.02 0h20.05m10.02 0h20.04m10.02 0h20.05m10.03 0h20.05m10.02 0h20.05m10.02 0h20.05m10.02 0H635m10 0h20.06m10.02 0h20.05m10.02 0h20.05m10.02 0h20.05m10.02 0h20.04m10.02 0h20.05m10.03 0h20.05m10.02 0h20.05m10.02 0h20.05m10.02 0h20.05m10 0h20.06m10.02 0h20.05m10.02 0h20.04m10.02 0h20.04m10.03 0h20.04m10.02 0h20.05m10.03 0h20.04m10.03 0h20.04m10.03 0h20.04m10.04 0h20.04m10.03 0h20.05m10.03 0h10.02a6 6 0 0 1 6 6v9.86m0 9.85v19.73m0 9.85V1015m0 9.85v19.72m0 9.85v19.72m0 9.85v19.7m0 9.86v19.72m0 9.85v19.7m0 9.87v19.7m0 9.87v19.7m0 9.87v9.86a6 6 0 0 1-6 6h-10.02m-10.03 0h-20.04m-10.02 0h-20.04m-10.03 0h-20.03m-10.03 0h-20.04m-10.03 0h-20.04m-10.03 0h-20.04m-10.02 0H1066m-10.04 0h-20.04m-10.03 0h-20.05m-10.02 0h-20.05m-10.02 0H945.7m-10 0h-20.06m-10.02 0h-20.05m-10.02 0H855.5m-10.02 0h-20.05m-10.02 0h-20.04m-10.02 0H765.3m-10.03 0h-20.05m-10.02 0h-20.05m-10.02 0h-20.05m-10.02 0H645m-10 0h-20.06m-10.02 0h-20.05m-10.02 0H554.8m-10.02 0h-20.05m-10.02 0h-20.04m-10.02 0H464.6m-10.03 0h-20.05m-10.02 0h-20.05m-10.02 0h-20.05m-10.02 0H344.3m-10 0h-20.06m-10.02 0h-20.05m-10.02 0H254.1m-10.02 0h-20.05m-10.02 0h-20.03m-10.03 0H163.9m-10.03 0h-20.04m-10.03 0h-20.04m-10.03 0H73.7m-10.04 0H43.62m-10.03 0H13.54m-10.03 0H-6.5a6 6 0 0 1-6-6v-9.86m0-9.86v-19.7m0-9.87v-19.7m0-9.86v-19.7m0-9.86v-19.72m0-9.85V1084m0-9.86v-19.72m0-9.85v-19.72m0-9.85v-19.72m0-9.85V965.7m0-9.84V946a6 6 0 0 1 6-6H3.52" stroke="#3a414a" stroke-width="2" fill="none"/><use xlink:href="#k" transform="matrix(1,0,0,1,3.5,956) translate(524.4817708333333 15.540364583333334)"/><use xlink:href="#l" transform="matrix(1,0,0,1,3.5,956) translate(580.4908854166666 15.540364583333334)"/><use xlink:href="#u" transform="matrix(1,0,0,1,3.5,956) translate(614.0963541666666 15.540364583333334)"/><use xlink:href="#v" transform="matrix(1,0,0,1,3.5,956) translate(597.2936197916666 39.4552951388889)"/><path d="M40 1066a6 6 0 0 1 6-6h304.25a6 6 0 0 1 6 6v128a6 6 0 0 1-6 6H46a6 6 0 0 1-6-6z" stroke="#cc4e00" stroke-width="2" fill="#fff3d9"/><use xlink:href="#w" transform="matrix(1,0,0,1,45,1065) translate(35.224999999999994 59.0875)"/><use xlink:href="#x" transform="matrix(1,0,0,1,45,1065) translate(169.025 59.0875)"/><use xlink:href="#y" transform="matrix(1,0,0,1,45,1065) translate(107.575 80.6875)"/><path d="M481.88 1066a6 6 0 0 1 6-6h304.25a6 6 0 0 1 6 6v128a6 6 0 0 1-6 6H487.88a6 6 0 0 1-6-6z" stroke="#1071e5" stroke-width="2" fill="#edf5ff"/><use xlink:href="#z" transform="matrix(1,0,0,1,486.875,1065) translate(62.7 59.0875)"/><use xlink:href="#A" transform="matrix(1,0,0,1,486.875,1065) translate(110.55000000000001 59.0875)"/><use xlink:href="#B" transform="matrix(1,0,0,1,486.875,1065) translate(110.525 80.6875)"/><path d="M923.75 1066a6 6 0 0 1 6-6H1234a6 6 0 0 1 6 6v128a6 6 0 0 1-6 6H929.75a6 6 0 0 1-6-6z" stroke="#008a0e" stroke-width="2" fill="#e3fae3"/><use xlink:href="#C" transform="matrix(1,0,0,1,928.75,1065) translate(40.77499999999998 59.0875)"/><use xlink:href="#D" transform="matrix(1,0,0,1,928.75,1065) translate(86.57499999999999 59.0875)"/><use xlink:href="#E" transform="matrix(1,0,0,1,928.75,1065) translate(96.57499999999999 59.0875)"/><use xlink:href="#F" transform="matrix(1,0,0,1,928.75,1065) translate(168.42499999999998 59.0875)"/><use xlink:href="#G" transform="matrix(1,0,0,1,928.75,1065) translate(199.375 59.0875)"/><use xlink:href="#H" transform="matrix(1,0,0,1,928.75,1065) translate(123 80.6875)"/><path d="M640.98 1040.5H639V900.67H641zm0-161.17H639V737H641z" stroke="#1071e5" stroke-width=".05" fill="#1071e5"/><path d="M647.5 736h-15l7.5-13z" fill="#1071e5"/><path d="M649.2 736.97h-18.4l9.2-15.92zm-15-1.96h11.6l-5.8-10.05z" stroke="#1071e5" stroke-width=".05" fill="#1071e5"/><path d="M640 1055.76l-4.63-14.26h9.26z" fill="#1071e5"/><path d="M640 1058.92l-5.98-18.4h11.96zm-3.3-16.45l3.3 10.14 3.3-10.13z" stroke="#1071e5" stroke-width=".05" fill="#1071e5"/><use xlink:href="#I" transform="matrix(1,0,0,1,571.4567901234568,879.3333333333334) translate(0 14.222222222222223)"/><use xlink:href="#b" transform="matrix(1,0,0,1,571.4567901234568,879.3333333333334) translate(65.1358024691358 14.222222222222223)"/><use xlink:href="#J" transform="matrix(1,0,0,1,571.4567901234568,879.3333333333334) translate(75.01234567901234 14.222222222222223)"/><path d="M296.64 949l-24.48 17.04-16.1 12.24-11.6 9.6-8.74 7.88-6.8 6.67-5.4 5.78-4.38 5.1-3.6 4.52-2.95 4.1-2.48 3.72-2.07 3.42-1.73 3.17-1.47 2.96-1.23 2.77-1.03 2.62-.23.6-1.84-.63.22-.64v-.02h.02l1.04-2.67h.02v-.02l1.26-2.82v-.02l1.5-3v-.04h.02l1.75-3.2v-.02h.02v-.02l2.1-3.47v-.02l2.5-3.76v-.02h.02v-.02l3-4.12v-.02l3.62-4.57v-.02h.02v-.02l4.4-5.1v-.02h.02l5.45-5.8.02-.02.02-.02 6.83-6.7v-.02h.02l8.77-7.93h.02l11.62-9.64h.02v-.02L271 964.47h.02v-.02l24.53-17.05h.02v-.02h.02l75.28-46.08h3.73zM581.4 721.13l-.05 1.18v.04l-.18 2.22v.04l-.3 2.27v.02l-.4 2.35v.04l-.5 2.4v.02l-.65 2.5v.04l-.8 2.6v.04l-.94 2.7v.04l-1.14 2.86v.04l-1.35 3v.02h-.02v.02l-1.6 3.2v.04l-1.9 3.43v.04l-2.23 3.67v.02h-.02l-2.66 4v.04h-.02l-3.17 4.38v.02h-.02l-3.83 4.85h-.02v.02l-4.65 5.4v.02h-.02l-5.74 6.13h-.02v.02h-.02l-7.18 7.05h-.02v.02l-9.2 8.3h-.02v.02l-12.13 10.04v.02h-.02l-16.75 12.73h-.02l-25.28 17.6h-.02l-50.62 32h-.02l-18.4 11.27h-3.72l21.1-12.92 50.6-31.98 25.23-17.55 16.7-12.7 12.1-10.02 9.16-8.25 7.15-7.02 5.7-6.1 4.63-5.37 3.8-4.8 3.16-4.35 2.63-3.95 2.2-3.65 1.85-3.4 1.57-3.16 1.32-2.97 1.1-2.8.93-2.7.77-2.54.63-2.46.5-2.37.38-2.3.28-2.22.18-2.18.05-1.16z" stroke="#cc4e00" stroke-width=".05" fill="#cc4e00"/><path d="M581.44 720.12l-.04 1.02-1.95-.08.04-1.02z" stroke="#cc4e00" stroke-width=".05" fill="#cc4e00"/><path d="M205.84 1042.62l-7.13 13.2-1.97-14.87z" fill="#cc4e00"/><path d="M207.34 1041.9l-9.2 17.02-2.56-19.17zm-8.06 10.8l5.07-9.36-6.48-1.2z" stroke="#cc4e00" stroke-width=".05" fill="#cc4e00"/><use xlink:href="#K" transform="matrix(1,0,0,1,335.0156517096776,879.9665893724716) translate(0 14.222222222222223)"/><use xlink:href="#L" transform="matrix(1,0,0,1,335.0156517096776,879.9665893724716) translate(79.75308641975309 14.222222222222223)"/><path d="M990.08 948.14v.02h.04v.02l22.32 16.38v.02h.02l15.2 12.18h.02v.02l11.1 9.7h.02v.02h.02l8.44 8.02h.02v.02l6.62 6.83v.02h.02l5.27 5.92v.02h.02l4.26 5.23v.02h.02l3.5 4.66v.02h.02l2.9 4.22v.04l2.4 3.83h.02v.02h.02l2 3.53v.02h.02v.02l1.68 3.27v.02h.02l1.4 3.06h.02v.04l1.2 2.86v.04l.84 2.28-1.83.67-.82-2.25-1.16-2.83-1.4-3-1.66-3.24-2-3.5-2.37-3.8-2.87-4.17-3.47-4.6-4.24-5.2-5.24-5.9-6.57-6.78-8.4-8-11.07-9.65-15.16-12.15L989 949.77l-80.8-51.2h3.64zm-289-226.44l.17 1.78.26 1.84.37 1.9.45 2 .56 2.08.7 2.2.84 2.3 1.02 2.46 1.22 2.63 1.46 2.82 1.74 3.07 2.1 3.34 2.54 3.7 3.08 4.1 3.8 4.64 4.7 5.28L732 774l7.64 7.25 10.14 8.85 14 11.23 20.87 15.3 37.04 24.84 56.47 35.78h-3.65l-53.88-34.14h-.02l-37.07-24.85h-.02v-.02h-.02l-20.88-15.34v-.02h-.02l-14.06-11.27h-.02v-.02l-10.17-8.87h-.02v-.02l-7.7-7.3-.02-.02-5.95-6.16h-.02v-.02l-4.74-5.32h-.02v-.02l-3.82-4.67v-.02h-.02l-3.1-4.16h-.02v-.04h-.02l-2.56-3.73v-.02h-.02l-2.12-3.4v-.02h-.02l-1.77-3.1v-.04l-1.48-2.88v-.02h-.02l-1.24-2.68V739l-1.04-2.5v-.02h-.02l-.86-2.36v-.04l-.72-2.23v-.04l-.6-2.12v-.02l-.46-2.03v-.04l-.37-1.94v-.04l-.28-1.88v-.04l-.2-1.83v-.04l-.03-.78 1.93-.1z" stroke="#008a0e" stroke-width=".05" fill="#008a0e"/><path d="M701.04 720.97l-1.95.1-.07-1.02 1.95-.1z" stroke="#008a0e" stroke-width=".05" fill="#008a0e"/><path d="M1081.3 1055.82l-7.08-13.23 9.13-1.64z" fill="#008a0e"/><path d="M1081.86 1058.92l-9.13-17.05 11.77-2.1zm-6.14-15.6l5.03 9.4 1.45-10.57z" stroke="#008a0e" stroke-width=".05" fill="#008a0e"/><use xlink:href="#M" transform="matrix(1,0,0,1,837.0335919171705,877.24620083889) translate(0 14.222222222222223)"/><use xlink:href="#N" transform="matrix(1,0,0,1,837.0335919171705,877.24620083889) translate(74.8641975308642 14.222222222222223)"/><path d="M-260 1426a6 6 0 0 1 6-6h648a6 6 0 0 1 6 6v295.7a6 6 0 0 1-6 6h-648a6 6 0 0 1-6-6z" fill-opacity="0"/><path d="M-234.36 1420h19.63m9.82 0h19.63m9.8 0h19.65m9.82 0h19.64m9.8 0h19.65m9.8 0h19.64m9.82 0H-38m9.82 0h19.64m9.8 0h19.65m9.83 0h19.63m9.82 0h19.64m9.82 0h19.63m9.82 0h19.63m9.8 0h19.65m9.82 0h19.64m9.82 0h19.63m9.8 0h19.65m9.8 0H286m9.82 0h19.63m9.82 0h19.64m9.83 0h19.63m9.82 0H394a6 6 0 0 1 6 6v9.86m0 9.85v19.73m0 9.85V1495m0 9.85v19.72m0 9.85v19.72m0 9.85v19.7m0 9.86v19.72m0 9.85v19.7m0 9.87v19.7m0 9.87v19.7m0 9.87v9.86a6 6 0 0 1-6 6h-9.82m-9.82 0h-19.63m-9.82 0h-19.63m-9.8 0H295.8m-9.82 0h-19.64m-9.8 0H236.9m-9.8 0h-19.64m-9.82 0H178m-9.82 0h-19.64m-9.8 0h-19.65m-9.83 0H89.64m-9.82 0H60.18m-9.82 0H30.73m-9.82 0H1.28m-9.8 0H-28.2m-9.82 0h-19.64m-9.8 0H-87.1m-9.8 0h-19.64m-9.82 0H-146m-9.82 0h-19.64m-9.8 0h-19.65m-9.83 0h-19.63m-9.82 0H-254a6 6 0 0 1-6-6v-9.86m0-9.86v-19.7m0-9.87v-19.7m0-9.86v-19.7m0-9.86v-19.72m0-9.85V1564m0-9.86v-19.72m0-9.85v-19.72m0-9.85v-19.72m0-9.85v-19.72m0-9.84V1426a6 6 0 0 1 6-6h9.82" stroke="#3a414a" stroke-width="2" fill="none"/><use xlink:href="#k" transform="matrix(1,0,0,1,-244,1436) translate(257.99088541666663 15.540364583333334)"/><use xlink:href="#l" transform="matrix(1,0,0,1,-244,1436) translate(314 15.540364583333334)"/><use xlink:href="#O" transform="matrix(1,0,0,1,-244,1436) translate(347.60546875 15.540364583333334)"/><path d="M641.88 1426a6 6 0 0 1 6-6h688a6 6 0 0 1 6 6v295.7a6 6 0 0 1-6 6h-688a6 6 0 0 1-6-6z" fill-opacity="0"/><path d="M667.82 1420h19.94m9.97 0h19.94m9.97 0h19.95m9.96 0h19.94m9.97 0h19.94m9.98 0h19.94m9.97 0h19.94m9.97 0h19.95m9.97 0h19.94m9.97 0h19.95m9.97 0h19.94m9.96 0h19.94m9.97 0h19.95m9.97 0h19.93m9.97 0h19.94m9.97 0h19.95m9.98 0h19.94m9.97 0h19.94m9.97 0h19.94m9.96 0h19.95m9.98 0h19.94m9.97 0h19.93m9.97 0h9.97a6 6 0 0 1 6 6v9.86m0 9.85v19.73m0 9.85V1495m0 9.85v19.72m0 9.85v19.72m0 9.85v19.7m0 9.86v19.72m0 9.85v19.7m0 9.87v19.7m0 9.87v19.7m0 9.87v9.86a6 6 0 0 1-6 6h-9.97m-9.97 0H1296m-9.98 0h-19.94m-9.97 0h-19.93m-9.98 0h-19.95m-9.97 0h-19.94m-9.97 0h-19.94m-9.98 0h-19.94m-9.96 0h-19.94m-9.97 0h-19.94m-9.98 0h-19.95m-9.97 0h-19.94m-9.97 0h-19.95m-9.97 0h-19.95m-9.97 0h-19.94m-9.97 0H877.2m-9.96 0H847.3m-9.98 0h-19.94m-9.97 0h-19.93m-9.97 0h-19.94m-9.97 0h-19.96m-9.97 0h-19.94m-9.97 0h-19.94m-9.97 0h-9.98a6 6 0 0 1-6-6v-9.86m0-9.86v-19.7m0-9.87v-19.7m0-9.86v-19.7m0-9.86v-19.72m0-9.85V1564m0-9.86v-19.72m0-9.85v-19.72m0-9.85v-19.72m0-9.85v-19.72m0-9.84V1426a6 6 0 0 1 6-6h9.98" stroke="#3a414a" stroke-width="2" fill="none"/><use xlink:href="#k" transform="matrix(1,0,0,1,657.875,1436) translate(221.98177083333331 15.540364583333334)"/><use xlink:href="#l" transform="matrix(1,0,0,1,657.875,1436) translate(277.99088541666663 15.540364583333334)"/><use xlink:href="#P" transform="matrix(1,0,0,1,657.875,1436) translate(311.59635416666663 15.540364583333334)"/><path d="M-167.9 1544.95a11.4 11.4 0 0 1 9.4-4.95h132a11.4 11.4 0 0 1 9.4 4.95l41.2 60.1a8.75 8.75 0 0 1 0 9.9l-41.2 60.1a11.4 11.4 0 0 1-9.4 4.95h-132a11.4 11.4 0 0 1-9.4-4.95l-41.2-60.1a8.75 8.75 0 0 1 0-9.9z" stroke="#003d87" stroke-width="2" fill="#edf5ff"/><use xlink:href="#Q" transform="matrix(1,0,0,1,-207.5,1544.9999999999998) translate(18.179999999999986 59.0875)"/><use xlink:href="#R" transform="matrix(1,0,0,1,-207.5,1544.9999999999998) translate(79.17999999999999 59.0875)"/><use xlink:href="#S" transform="matrix(1,0,0,1,-207.5,1544.9999999999998) translate(105.13 59.0875)"/><use xlink:href="#T" transform="matrix(1,0,0,1,-207.5,1544.9999999999998) translate(67.08 80.6875)"/><path d="M144.6 1544.95a11.4 11.4 0 0 1 9.4-4.95h132a11.4 11.4 0 0 1 9.4 4.95l41.2 60.1a8.75 8.75 0 0 1 0 9.9l-41.2 60.1a11.4 11.4 0 0 1-9.4 4.95H154a11.4 11.4 0 0 1-9.4-4.95l-41.2-60.1a8.75 8.75 0 0 1 0-9.9z" stroke="#003d87" stroke-width="2" fill="#edf5ff"/><use xlink:href="#U" transform="matrix(1,0,0,1,105,1544.9999999999995) translate(62.679999999999986 59.0875)"/><use xlink:href="#V" transform="matrix(1,0,0,1,105,1544.9999999999995) translate(130.48000000000002 59.0875)"/><use xlink:href="#W" transform="matrix(1,0,0,1,105,1544.9999999999995) translate(86.58 80.6875)"/><path d="M1284.73 1664c0 8.84-49.9 16-111.43 16-61.54 0-111.42-7.16-111.42-16v-128c0-8.84 49.88-16 111.42-16s111.43 7.16 111.43 16z" stroke="#003d87" stroke-width="2" fill="#edf5ff"/><path d="M1284.73 1536c0 8.84-49.9 16-111.43 16-61.54 0-111.42-7.16-111.42-16" stroke="#003d87" stroke-width="2" fill="none"/><use xlink:href="#X" transform="matrix(1,0,0,1,1066.875,1556.9999999999998) translate(37.75 53.1875)"/><use xlink:href="#Y" transform="matrix(1,0,0,1,1066.875,1556.9999999999998) translate(91.02777777777779 53.1875)"/><use xlink:href="#Z" transform="matrix(1,0,0,1,1066.875,1556.9999999999998) translate(119.86111111111111 53.1875)"/><use xlink:href="#aa" transform="matrix(1,0,0,1,1066.875,1556.9999999999998) translate(64.17592592592592 76.03194444444445)"/><path d="M199.1 1383.96l.06.83.2.75.3.73.4.67.5.6.6.5.7.42.7.3.78.2.82.06h389.88l1.05.08 1.06.26 1 .42.94.58.83.7.72.84.57.93.42 1 .25 1.08.08 1.06v198l.06.83.18.75.3.73.42.67.5.6.6.5.68.42.73.3.76.2.84.06h94.46v1.94h-94.54l-1.05-.08-1.06-.26-1-.42-.94-.58-.83-.7-.72-.84-.57-.93-.42-1-.25-1.08-.08-1.06v-198l-.06-.83-.18-.75-.3-.73-.42-.67-.5-.6-.6-.5-.68-.42-.73-.3-.76-.2-.84-.06H204.1l-1.07-.08-1.06-.26-1-.42-.95-.58-.83-.7-.72-.84-.57-.93-.4-1-.27-1.08-.08-1.06v-28.66h1.95zm0-49.92h-1.95V1202h1.95z" stroke="#cc4e00" stroke-width=".05" fill="#cc4e00"/><path d="M199.1 1202.03h-1.95V1201h1.95z" fill="#cc4e00"/><path stroke="#cc4e00" stroke-width=".05" fill="#cc4e00"/><path d="M715.76 1600l-14.26 4.63v-9.27z" fill="#cc4e00"/><path d="M718.92 1600l-18.4 5.98v-11.96zm-16.45 3.3l10.14-3.3-10.13-3.3z" stroke="#cc4e00" stroke-width=".05" fill="#cc4e00"/><g><use xlink:href="#ab" transform="matrix(1,0,0,1,144.91512345679013,1334.0439289498129) translate(0 14.222222222222223)"/></g><path d="M1174.28 1794.04l-.08 1.05-.26 1.06-.42 1-.57.94-.7.83-.85.7-.93.6-1 .4-1.08.26-1.06.07H425.96l-1.05-.08-1.06-.26-1-.42-.94-.58-.83-.7-.7-.84-.6-.93-.4-1-.26-1.08-.08-1.06v-33.92h1.96v33.84l.06.83.18.75.3.73.42.67.5.6.6.5.68.42.73.3.76.2.84.06h741.23l.82-.07.76-.18.72-.3.68-.42.6-.5.5-.6.42-.68.3-.73.18-.76.07-.84v-94.46h1.95zm-759.2-664.93l1.08.26 1 .42.94.58.83.7.7.84.6.93.4 1 .26 1.08.08 1.06v602.83h-1.96v-602.76l-.06-.83-.18-.75-.3-.73-.42-.67-.5-.6-.6-.5-.68-.42-.73-.3-.76-.2-.84-.06h-55.7v-1.94h55.78z" stroke="#cc4e00" stroke-width=".05" fill="#cc4e00"/><path d="M358.28 1130.97h-1.03v-1.94h1.03z" fill="#cc4e00"/><path stroke="#cc4e00" stroke-width=".05" fill="#cc4e00"/><path d="M1177.94 1698.5h-9.27l4.63-14.26z" fill="#cc4e00"/><path d="M1179.28 1699.48h-11.95l5.97-18.4zm-9.27-1.95h6.6l-3.3-10.14z" stroke="#cc4e00" stroke-width=".05" fill="#cc4e00"/><g><use xlink:href="#ac" transform="matrix(1,0,0,1,381.58024691358025,1738.789226747628) translate(0 14.222222222222223)"/></g><path d="M942.86 1664c0 8.84-49.9 16-111.43 16-61.54 0-111.43-7.16-111.43-16v-128c0-8.84 49.9-16 111.43-16 61.54 0 111.43 7.16 111.43 16z" stroke="#003d87" stroke-width="2" fill="#edf5ff"/><path d="M942.86 1536c0 8.84-49.9 16-111.43 16-61.54 0-111.43-7.16-111.43-16" stroke="#003d87" stroke-width="2" fill="none"/><g><use xlink:href="#X" transform="matrix(1,0,0,1,725,1556.9999999999998) translate(38.25 53.1875)"/><use xlink:href="#ad" transform="matrix(1,0,0,1,725,1556.9999999999998) translate(91.52777777777779 53.1875)"/><use xlink:href="#ae" transform="matrix(1,0,0,1,725,1556.9999999999998) translate(82.75617283950618 76.03194444444445)"/></g><path d="M59.64 1604.04l-.08 1.05-.26 1.06-.42 1-.57.94-.7.83-.83.7-.94.6-1 .4-1.07.26-1.06.07h-7.56v-1.94h7.5l.8-.07.78-.18.73-.3.67-.42.6-.5.5-.6.42-.68.3-.73.2-.76.05-.84V1355.1h1.94zm0-270.27H57.7V1202h1.94z" stroke="#cc4e00" stroke-width=".05" fill="#cc4e00"/><path d="M59.64 1202.03H57.7V1201h1.94z" fill="#cc4e00"/><path stroke="#cc4e00" stroke-width=".05" fill="#cc4e00"/><path d="M44.14 1614.63L29.88 1610l14.26-4.63z" fill="#cc4e00"/><path d="M45.12 1615.98l-18.4-5.98 18.4-5.98zm-12.1-5.98l10.15 3.3v-6.6z" stroke="#cc4e00" stroke-width=".05" fill="#cc4e00"/><g><use xlink:href="#af" transform="matrix(1,0,0,1,20.714938722104407,1333.7664306092738) translate(0 14.222222222222223)"/></g><path d="M-91.53 1538h-1.94v-182.9h1.94zm114.54-436.5H-86.45l-.83.06-.75.2-.73.3-.67.4-.6.5-.5.6-.42.68-.3.73-.2.77-.06.82v227.2h-1.94V1106.5l.08-1.07.26-1.06.42-1 .58-.95.7-.83.84-.72.93-.57 1-.4 1.08-.27 1.06-.08H23z" stroke="#cc4e00" stroke-width=".05" fill="#cc4e00"/><path d="M37 1100.52l-13 7.5v-15z" fill="#cc4e00"/><path d="M38.95 1100.52l-15.92 9.2v-18.38zm-13.97 5.82l10.07-5.82-10.06-5.8z" stroke="#cc4e00" stroke-width=".05" fill="#cc4e00"/><path d="M-91.53 1539h-1.94v-1.03h1.94z" fill="#cc4e00"/><path stroke="#cc4e00" stroke-width=".05" fill="#cc4e00"/><g><use xlink:href="#ag" transform="matrix(1,0,0,1,-136.35185185185185,1333.7664306092738) translate(0 14.222222222222223)"/></g><path d="M464.9 1130a4.88 4.88 0 0 0-4.9 4.88V1604a6 6 0 0 1-6 6h-96.36" stroke="#1071e5" stroke-width="2" fill="none"/><path d="M478.88 1130l-13 7.5v-15zM342.38 1610l14.26-4.63v9.27z" stroke="#1071e5" stroke-width="2" fill="#1071e5"/><path d="M640.98 1383.96l.06.83.18.75.3.73.42.67.5.6.6.5.68.42.73.3.76.2.84.06h179.43l1.05.08 1.07.26 1 .42.93.58.83.7.7.84.6.93.4 1 .26 1.08.08 1.06v104.54h-1.95v-104.46l-.06-.83-.2-.75-.3-.73-.4-.67-.52-.6-.6-.5-.67-.42-.72-.3-.77-.2-.8-.06H645.95l-1.05-.08-1.06-.26-1-.42-.94-.58-.83-.7-.72-.84-.57-.93-.42-1-.25-1.08-.08-1.06v-25.3H641zm0-46.56H639V1202H641z" stroke="#1071e5" stroke-width=".05" fill="#1071e5"/><path d="M640.98 1202.03H639V1201H641z" fill="#1071e5"/><path stroke="#1071e5" stroke-width=".05" fill="#1071e5"/><path d="M831.43 1515.76l-4.64-14.26h9.26z" fill="#1071e5"/><path d="M831.43 1518.92l-5.98-18.4h11.96zm-3.3-16.45l3.3 10.14 3.3-10.13z" stroke="#1071e5" stroke-width=".05" fill="#1071e5"/><g><use xlink:href="#ah" transform="matrix(1,0,0,1,567.0864197530864,1337.4016383237515) translate(0 14.222222222222223)"/><use xlink:href="#ai" transform="matrix(1,0,0,1,567.0864197530864,1337.4016383237515) translate(70.8641975308642 14.222222222222223)"/></g><path d="M800.13 1130H874a6 6 0 0 1 6 6v248a6 6 0 0 0 6 6h281.3a6 6 0 0 1 6 6v104.5" stroke="#1071e5" stroke-width="2" fill="none"/><path d="M800.15 1130.97h-1.02v-1.94h1.02z" stroke="#1071e5" stroke-width=".05" fill="#1071e5"/><path d="M1173.3 1515.76l-4.63-14.26h9.27z" stroke="#1071e5" stroke-width="2" fill="#1071e5"/><path d="M1257 1130h102.73a6 6 0 0 1 6 6v458a6 6 0 0 1-6 6h-55.5" stroke="#008a0e" stroke-width="2" fill="none"/><path d="M1243 1130l13-7.5v15zM1288.97 1600l14.26-4.63v9.27z" stroke="#008a0e" stroke-width="2" fill="#008a0e"/><path d="M140 1806a6 6 0 0 1 6-6h148a6 6 0 0 1 6 6v28a6 6 0 0 1-6 6H146a6 6 0 0 1-6-6z" stroke="#000" stroke-opacity="0" stroke-width="2" fill-opacity="0"/><g><use xlink:href="#aj" transform="matrix(1,0,0,1,145,1805) translate(58.525 18.15)"/></g><path d="M280 106a6 6 0 0 1 6-6h148a6 6 0 0 1 6 6v28a6 6 0 0 1-6 6H286a6 6 0 0 1-6-6z" stroke="#000" stroke-opacity="0" stroke-width="2" fill-opacity="0"/><g><use xlink:href="#aj" transform="matrix(1,0,0,1,285,105) translate(58.525 18.15)"/></g><defs><path fill="#333" d="M67-125c0 53 21 87 73 88 37 1 54-22 65-47l45 17C233-25 199 4 140 4 58 4 20-42 15-125 8-235 124-281 211-232c18 10 29 29 36 50l-46 12c-8-25-30-41-62-41-52 0-71 34-72 86" id="ak"/><path fill="#333" d="M110-194c64 0 96 36 96 99 0 64-35 99-97 99-61 0-95-36-95-99 0-62 34-99 96-99zm-1 164c35 0 45-28 45-65 0-40-10-65-43-65-34 0-45 26-45 65 0 36 10 65 43 65" id="al"/><path fill="#333" d="M135-194c87-1 58 113 63 194h-50c-7-57 23-157-34-157-59 0-34 97-39 157H25l-1-190h47c2 12-1 28 3 38 12-26 28-41 61-42" id="am"/><path fill="#333" d="M137-138c1-29-70-34-71-4 15 46 118 7 119 86 1 83-164 76-172 9l43-7c4 19 20 25 44 25 33 8 57-30 24-41C81-84 22-81 20-136c-2-80 154-74 161-7" id="an"/><path fill="#333" d="M85 4C-2 5 27-109 22-190h50c7 57-23 150 33 157 60-5 35-97 40-157h50l1 190h-47c-2-12 1-28-3-38-12 25-28 42-61 42" id="ao"/><path fill="#333" d="M25 0v-261h50V0H25" id="ap"/><path fill="#333" d="M115-3C79 11 28 4 28-45v-112H4v-33h27l15-45h31v45h36v33H77v99c-1 23 16 31 38 25v30" id="aq"/><path fill="#333" d="M133-34C117-15 103 5 69 4 32 3 11-16 11-54c-1-60 55-63 116-61 1-26-3-47-28-47-18 1-26 9-28 27l-52-2c7-38 36-58 82-57s74 22 75 68l1 82c-1 14 12 18 25 15v27c-30 8-71 5-69-32zm-48 3c29 0 43-24 42-57-32 0-66-3-65 30 0 17 8 27 23 27" id="ar"/><g id="a"><use transform="matrix(0.04938271604938272,0,0,0.04938271604938272,0,0)" xlink:href="#ak"/><use transform="matrix(0.04938271604938272,0,0,0.04938271604938272,12.790123456790125,0)" xlink:href="#al"/><use transform="matrix(0.04938271604938272,0,0,0.04938271604938272,23.60493827160494,0)" xlink:href="#am"/><use transform="matrix(0.04938271604938272,0,0,0.04938271604938272,34.41975308641975,0)" xlink:href="#an"/><use transform="matrix(0.04938271604938272,0,0,0.04938271604938272,44.2962962962963,0)" xlink:href="#ao"/><use transform="matrix(0.04938271604938272,0,0,0.04938271604938272,55.111111111111114,0)" xlink:href="#ap"/><use transform="matrix(0.04938271604938272,0,0,0.04938271604938272,60.04938271604939,0)" xlink:href="#aq"/><use transform="matrix(0.04938271604938272,0,0,0.04938271604938272,65.92592592592592,0)" xlink:href="#ar"/><use transform="matrix(0.04938271604938272,0,0,0.04938271604938272,75.80246913580247,0)" xlink:href="#an"/></g><path fill="#333" d="M4 7l51-268h42L46 7H4" id="as"/><use transform="matrix(0.04938271604938272,0,0,0.04938271604938272,0,0)" xlink:href="#as" id="b"/><path fill="#333" d="M114-157C55-157 80-60 75 0H25v-261h50l-1 109c12-26 28-41 61-42 86-1 58 113 63 194h-50c-7-57 23-157-34-157" id="at"/><g id="c"><use transform="matrix(0.04938271604938272,0,0,0.04938271604938272,0,0)" xlink:href="#ak"/><use transform="matrix(0.04938271604938272,0,0,0.04938271604938272,12.790123456790125,0)" xlink:href="#at"/><use transform="matrix(0.04938271604938272,0,0,0.04938271604938272,23.60493827160494,0)" xlink:href="#ar"/><use transform="matrix(0.04938271604938272,0,0,0.04938271604938272,33.48148148148148,0)" xlink:href="#aq"/></g><path d="M175 0L67-191c6 58 2 128 3 191H24v-248h59L193-55c-6-58-2-129-3-193h46V0h-61" id="au"/><path d="M110-194c64 0 96 36 96 99 0 64-35 99-97 99-61 0-95-36-95-99 0-62 34-99 96-99zm-1 164c35 0 45-28 45-65 0-40-10-65-43-65-34 0-45 26-45 65 0 36 10 65 43 65" id="av"/><path d="M115-3C79 11 28 4 28-45v-112H4v-33h27l15-45h31v45h36v33H77v99c-1 23 16 31 38 25v30" id="aw"/><path d="M133-34C117-15 103 5 69 4 32 3 11-16 11-54c-1-60 55-63 116-61 1-26-3-47-28-47-18 1-26 9-28 27l-52-2c7-38 36-58 82-57s74 22 75 68l1 82c-1 14 12 18 25 15v27c-30 8-71 5-69-32zm-48 3c29 0 43-24 42-57-32 0-66-3-65 30 0 17 8 27 23 27" id="ax"/><path d="M135-150c-39-12-60 13-60 57V0H25l-1-190h47c2 13-1 29 3 40 6-28 27-53 61-41v41" id="ay"/><path d="M25-224v-37h50v37H25zM25 0v-190h50V0H25" id="az"/><g id="d"><use transform="matrix(0.05,0,0,0.05,0,0)" xlink:href="#au"/><use transform="matrix(0.05,0,0,0.05,12.950000000000001,0)" xlink:href="#av"/><use transform="matrix(0.05,0,0,0.05,23.900000000000002,0)" xlink:href="#aw"/><use transform="matrix(0.05,0,0,0.05,29.85,0)" xlink:href="#ax"/><use transform="matrix(0.05,0,0,0.05,39.85,0)" xlink:href="#ay"/><use transform="matrix(0.05,0,0,0.05,46.85,0)" xlink:href="#az"/><use transform="matrix(0.05,0,0,0.05,51.85,0)" xlink:href="#av"/></g><path d="M4 7l51-268h42L46 7H4" id="aA"/><use transform="matrix(0.05,0,0,0.05,0,0)" xlink:href="#aA" id="e"/><path d="M199 0l-22-63H83L61 0H9l90-248h61L250 0h-51zm-33-102l-36-108c-10 38-24 72-36 108h72" id="aB"/><path d="M135-194c52 0 70 43 70 98 0 56-19 99-73 100-30 1-46-15-58-35L72 0H24l1-261h50v104c11-23 29-37 60-37zM114-30c31 0 40-27 40-66 0-37-7-63-39-63s-41 28-41 65c0 36 8 64 40 64" id="aC"/><path d="M195-6C206 82 75 100 31 46c-4-6-6-13-8-21l49-6c3 16 16 24 34 25 40 0 42-37 40-79-11 22-30 35-61 35-53 0-70-43-70-97 0-56 18-96 73-97 30 0 46 14 59 34l2-30h47zm-90-29c32 0 41-27 41-63 0-35-9-62-40-62-32 0-39 29-40 63 0 36 9 62 39 62" id="aD"/><path d="M88-194c31-1 46 15 58 34l-1-101h50l1 261h-48c-2-10 0-23-3-31C134-8 116 4 84 4 32 4 16-41 15-95c0-56 19-97 73-99zm17 164c33 0 40-30 41-66 1-37-9-64-41-64s-38 30-39 65c0 43 13 65 39 65" id="aE"/><g id="f"><use transform="matrix(0.05,0,0,0.05,0,0)" xlink:href="#aB"/><use transform="matrix(0.05,0,0,0.05,12.950000000000001,0)" xlink:href="#aC"/><use transform="matrix(0.05,0,0,0.05,23.900000000000002,0)" xlink:href="#av"/><use transform="matrix(0.05,0,0,0.05,34.85,0)" xlink:href="#aD"/><use transform="matrix(0.05,0,0,0.05,45.800000000000004,0)" xlink:href="#ax"/><use transform="matrix(0.05,0,0,0.05,55.800000000000004,0)" xlink:href="#aE"/><use transform="matrix(0.05,0,0,0.05,66.75,0)" xlink:href="#av"/></g><path d="M232-93c-1 65-40 97-104 97C67 4 28-28 28-90v-158h33c8 89-33 224 67 224 102 0 64-133 71-224h33v155" id="aF"/><path d="M135-143c-3-34-86-38-87 0 15 53 115 12 119 90S17 21 10-45l28-5c4 36 97 45 98 0-10-56-113-15-118-90-4-57 82-63 122-42 12 7 21 19 24 35" id="aG"/><path d="M84 4C-5 8 30-112 23-190h32v120c0 31 7 50 39 49 72-2 45-101 50-169h31l1 190h-30c-1-10 1-25-2-33-11 22-28 36-60 37" id="aH"/><path d="M141-36C126-15 110 5 73 4 37 3 15-17 15-53c-1-64 63-63 125-63 3-35-9-54-41-54-24 1-41 7-42 31l-33-3c5-37 33-52 76-52 45 0 72 20 72 64v82c-1 20 7 32 28 27v20c-31 9-61-2-59-35zM48-53c0 20 12 33 32 33 41-3 63-29 60-74-43 2-92-5-92 41" id="aI"/><path d="M114-163C36-179 61-72 57 0H25l-1-190h30c1 12-1 29 2 39 6-27 23-49 58-41v29" id="aJ"/><path d="M24-231v-30h32v30H24zM24 0v-190h32V0H24" id="aK"/><path d="M100-194c62-1 85 37 85 99 1 63-27 99-86 99S16-35 15-95c0-66 28-99 85-99zM99-20c44 1 53-31 53-75 0-43-8-75-51-75s-53 32-53 75 10 74 51 75" id="aL"/><g id="g"><use transform="matrix(0.05,0,0,0.05,0,0)" xlink:href="#aF"/><use transform="matrix(0.05,0,0,0.05,12.950000000000001,0)" xlink:href="#aG"/><use transform="matrix(0.05,0,0,0.05,21.950000000000003,0)" xlink:href="#aH"/><use transform="matrix(0.05,0,0,0.05,31.950000000000003,0)" xlink:href="#aI"/><use transform="matrix(0.05,0,0,0.05,41.95,0)" xlink:href="#aJ"/><use transform="matrix(0.05,0,0,0.05,47.900000000000006,0)" xlink:href="#aK"/><use transform="matrix(0.05,0,0,0.05,51.85,0)" xlink:href="#aL"/></g><path d="M30-248c87 1 191-15 191 75 0 78-77 80-158 76V0H30v-248zm33 125c57 0 124 11 124-50 0-59-68-47-124-48v98" id="aM"/><path d="M117-194c89-4 53 116 60 194h-32v-121c0-31-8-49-39-48C34-167 62-67 57 0H25l-1-190h30c1 10-1 24 2 32 11-22 29-35 61-36" id="aN"/><path d="M96-169c-40 0-48 33-48 73s9 75 48 75c24 0 41-14 43-38l32 2c-6 37-31 61-74 61-59 0-76-41-82-99-10-93 101-131 147-64 4 7 5 14 7 22l-32 3c-4-21-16-35-41-35" id="aO"/><path d="M115-194c55 1 70 41 70 98S169 2 115 4C84 4 66-9 55-30l1 105H24l-1-265h31l2 30c10-21 28-34 59-34zm-8 174c40 0 45-34 45-75s-6-73-45-74c-42 0-51 32-51 76 0 43 10 73 51 73" id="aP"/><path d="M24 0v-261h32V0H24" id="aQ"/><g id="h"><use transform="matrix(0.05,0,0,0.05,0,0)" xlink:href="#aM"/><use transform="matrix(0.05,0,0,0.05,12,0)" xlink:href="#aJ"/><use transform="matrix(0.05,0,0,0.05,17.95,0)" xlink:href="#aK"/><use transform="matrix(0.05,0,0,0.05,21.9,0)" xlink:href="#aN"/><use transform="matrix(0.05,0,0,0.05,31.899999999999995,0)" xlink:href="#aO"/><use transform="matrix(0.05,0,0,0.05,40.9,0)" xlink:href="#aK"/><use transform="matrix(0.05,0,0,0.05,44.85,0)" xlink:href="#aP"/><use transform="matrix(0.05,0,0,0.05,54.85,0)" xlink:href="#aI"/><use transform="matrix(0.05,0,0,0.05,64.85,0)" xlink:href="#aQ"/></g><path fill="#333" d="M169-182c-1-43-94-46-97-3 18 66 151 10 154 114 3 95-165 93-204 36-6-8-10-19-12-30l50-8c3 46 112 56 116 5-17-69-150-10-154-114-4-87 153-88 188-35 5 8 8 18 10 28" id="aR"/><path fill="#333" d="M135-194c52 0 70 43 70 98 0 56-19 99-73 100-30 1-46-15-58-35L72 0H24l1-261h50v104c11-23 29-37 60-37zM114-30c31 0 40-27 40-66 0-37-7-63-39-63s-41 28-41 65c0 36 8 64 40 64" id="aS"/><path fill="#333" d="M185-48c-13 30-37 53-82 52C43 2 14-33 14-96s30-98 90-98c62 0 83 45 84 108H66c0 31 8 55 39 56 18 0 30-7 34-22zm-45-69c5-46-57-63-70-21-2 6-4 13-4 21h74" id="aT"/><g id="i"><use transform="matrix(0.04938271604938272,0,0,0.04938271604938272,0,0)" xlink:href="#aR"/><use transform="matrix(0.04938271604938272,0,0,0.04938271604938272,11.851851851851853,0)" xlink:href="#ao"/><use transform="matrix(0.04938271604938272,0,0,0.04938271604938272,22.666666666666668,0)" xlink:href="#aS"/><use transform="matrix(0.04938271604938272,0,0,0.04938271604938272,33.48148148148148,0)" xlink:href="#aT"/></g><path fill="#333" d="M135-150c-39-12-60 13-60 57V0H25l-1-190h47c2 13-1 29 3 40 6-28 27-53 61-41v41" id="aU"/><g id="j"><use transform="matrix(0.04938271604938272,0,0,0.04938271604938272,0,0)" xlink:href="#ak"/><use transform="matrix(0.04938271604938272,0,0,0.04938271604938272,12.790123456790125,0)" xlink:href="#al"/><use transform="matrix(0.04938271604938272,0,0,0.04938271604938272,23.60493827160494,0)" xlink:href="#am"/><use transform="matrix(0.04938271604938272,0,0,0.04938271604938272,34.41975308641975,0)" xlink:href="#aq"/><use transform="matrix(0.04938271604938272,0,0,0.04938271604938272,40.2962962962963,0)" xlink:href="#aU"/><use transform="matrix(0.04938271604938272,0,0,0.04938271604938272,47.20987654320988,0)" xlink:href="#ar"/><use transform="matrix(0.04938271604938272,0,0,0.04938271604938272,57.086419753086425,0)" xlink:href="#aq"/><use transform="matrix(0.04938271604938272,0,0,0.04938271604938272,62.96296296296297,0)" xlink:href="#al"/></g><path d="M872-915c-35-112-84-223-220-223-91 0-156 41-204 116-89 137-87 550 2 688 51 79 116 122 209 122 150 0 197-126 240-244l273 52C1094-168 961 20 656 20 239 20 80-262 80-681c0-418 154-689 568-689 289 0 425 167 496 389" id="aV"/><path d="M775-193C708-75 621 20 439 20 226 20 106-93 106-306c0-251 170-341 417-346l223-4c4-143-12-264-148-264-103 0-141 58-150 153l-293-14c37-219 194-321 455-321 263 0 418 130 417 390v392c1 84 5 161 89 160 21 0 42-2 62-6v152c-57 15-108 27-180 26-145 0-202-73-217-205h-6zm-256 17c168 0 234-139 227-325-166 4-347-25-347 173 0 94 33 152 120 152" id="aW"/><path d="M427-171c3 195 2 397 2 596H148V-846c1-83-4-168-8-236h272c10 49 14 118 15 176h4c59-114 151-197 316-197 291 0 385 259 385 560 0 243-65 433-220 521-50 28-109 42-176 42-162-2-253-78-309-191zm69-661c-91 113-92 463-1 586 46 62 145 101 225 54 96-57 118-191 119-351 0-123-18-215-53-276-46-82-128-115-220-74-25 12-48 33-70 61" id="aX"/><g id="k"><use transform="matrix(0.009114583333333334,0,0,0.009114583333333334,0,0)" xlink:href="#aV"/><use transform="matrix(0.009114583333333334,0,0,0.009114583333333334,11.201822916666668,0)" xlink:href="#aW"/><use transform="matrix(0.009114583333333334,0,0,0.009114583333333334,22.403645833333336,0)" xlink:href="#aX"/><use transform="matrix(0.009114583333333334,0,0,0.009114583333333334,33.60546875,0)" xlink:href="#aW"/></g><path d="M802-909c-3-189-2-383-2-575h281v1248c-1 83 4 168 8 236H817c-9-50-14-117-15-176h-4C735-49 651 20 482 20 191 20 97-238 97-539c0-243 66-432 221-519 50-28 108-42 175-42 162 2 253 78 309 191zm-70 658c91-113 93-462 2-584-46-61-145-100-224-53-96 56-119 190-120 349 0 123 17 214 52 275 46 82 130 115 222 74 25-12 46-33 68-61" id="aY"/><path d="M1113-274C1038-96 884 20 626 20c-352 0-526-209-526-566 0-358 185-556 530-556 358 0 496 251 499 615H395c5 180 68 319 245 319 102 0 186-45 208-129zM857-663c-6-177-128-307-315-247-94 30-141 121-145 247h460" id="aZ"/><g id="l"><use transform="matrix(0.009114583333333334,0,0,0.009114583333333334,0,0)" xlink:href="#aY"/><use transform="matrix(0.009114583333333334,0,0,0.009114583333333334,11.201822916666668,0)" xlink:href="#aZ"/></g><path d="M616-1349c316 3 526 118 526 426 0 301-201 442-514 447H431V0H136v-1349h480zm-25 646c164 1 254-62 254-215 0-157-99-200-262-202H431v417h160" id="ba"/><path d="M875-1102c70 0 148 7 206 17v237c-110-17-267-37-359 15-123 69-192 207-192 395V0H250c-10-367 32-789-52-1082h271c19 69 36 149 46 228h4c52-151 151-250 356-248" id="bb"/><path d="M622-916c-112 2-200 14-200 111 0 90 89 101 168 121 234 58 514 77 514 368C1104-4 751 54 434 5 267-21 161-112 121-270l247-37c24 111 113 145 252 141 114-3 226-12 226-124 0-101-103-113-192-134-225-54-490-76-490-351 0-247 201-328 458-328 245 0 413 88 457 292l-249 26c-16-98-92-133-208-131" id="bc"/><path d="M768-1103c247 0 336 167 336 416V0H824v-619c-3-164-24-273-171-273-164 0-229 142-229 312V0H143c-4-359 9-736-8-1082h268c7 63 12 146 13 215h4c67-145 160-236 348-236" id="bd"/><path d="M711 13c-250 0-386-99-385-349l2-556H161v-190h181l88-282h176v282h385v190H606v530c-10 130 45 186 174 184 91-2 176-11 255-27v186C933-1 833 13 711 13" id="be"/><path d="M1109-360C1066-122 902 20 624 20c-347 0-514-209-514-555 0-353 168-567 518-567 270 0 425 136 473 361l-283 14c-16-106-75-183-196-182-75 0-130 31-165 93s-52 152-52 270c0 249 74 374 221 374 120 0 188-82 201-201" id="bf"/><path d="M794-190h353V0H118v-190h395v-702H223v-190h571v892zM513-1277v-207h281v207H513" id="bg"/><path d="M616-1102c361 0 521 202 521 560 0 354-171 562-527 562C259 20 92-192 92-542c0-351 169-560 524-560zm-9 930c200-2 236-165 236-370 0-199-27-367-223-367-195 0-233 146-233 367 0 129 18 223 55 282s92 88 165 88zM468-1184v-31l252-243h258v43l-340 231H468" id="bh"/><g id="m"><use transform="matrix(0.009114583333333334,0,0,0.009114583333333334,0,0)" xlink:href="#ba"/><use transform="matrix(0.009114583333333334,0,0,0.009114583333333334,11.201822916666668,0)" xlink:href="#bb"/><use transform="matrix(0.009114583333333334,0,0,0.009114583333333334,22.403645833333336,0)" xlink:href="#aZ"/><use transform="matrix(0.009114583333333334,0,0,0.009114583333333334,33.60546875,0)" xlink:href="#bc"/><use transform="matrix(0.009114583333333334,0,0,0.009114583333333334,44.80729166666667,0)" xlink:href="#aZ"/><use transform="matrix(0.009114583333333334,0,0,0.009114583333333334,56.00911458333334,0)" xlink:href="#bd"/><use transform="matrix(0.009114583333333334,0,0,0.009114583333333334,67.21093750000001,0)" xlink:href="#be"/><use transform="matrix(0.009114583333333334,0,0,0.009114583333333334,78.41276041666669,0)" xlink:href="#aW"/><use transform="matrix(0.009114583333333334,0,0,0.009114583333333334,89.61458333333336,0)" xlink:href="#bf"/><use transform="matrix(0.009114583333333334,0,0,0.009114583333333334,100.81640625000003,0)" xlink:href="#bg"/><use transform="matrix(0.009114583333333334,0,0,0.009114583333333334,112.01822916666671,0)" xlink:href="#bh"/><use transform="matrix(0.009114583333333334,0,0,0.009114583333333334,123.22005208333337,0)" xlink:href="#bd"/></g><path fill="#333" d="M24 0v-248h52v208h133V0H24" id="bi"/><path fill="#333" d="M195-6C206 82 75 100 31 46c-4-6-6-13-8-21l49-6c3 16 16 24 34 25 40 0 42-37 40-79-11 22-30 35-61 35-53 0-70-43-70-97 0-56 18-96 73-97 30 0 46 14 59 34l2-30h47zm-90-29c32 0 41-27 41-63 0-35-9-62-40-62-32 0-39 29-40 63 0 36 9 62 39 62" id="bj"/><path fill="#333" d="M25-224v-37h50v37H25zM25 0v-190h50V0H25" id="bk"/><g id="n"><use transform="matrix(0.04938271604938272,0,0,0.04938271604938272,0,0)" xlink:href="#bi"/><use transform="matrix(0.04938271604938272,0,0,0.04938271604938272,10.814814814814815,0)" xlink:href="#al"/><use transform="matrix(0.04938271604938272,0,0,0.04938271604938272,21.62962962962963,0)" xlink:href="#bj"/><use transform="matrix(0.04938271604938272,0,0,0.04938271604938272,32.44444444444444,0)" xlink:href="#bk"/><use transform="matrix(0.04938271604938272,0,0,0.04938271604938272,37.382716049382715,0)" xlink:href="#am"/></g><path fill="#333" d="M240-174c0 40-23 61-54 70L253 0h-59l-57-94H76V0H24v-248c93 4 217-23 216 74zM76-134c48-2 112 12 112-38 0-48-66-32-112-35v73" id="bl"/><path fill="#333" d="M238-95c0 69-44 99-111 99C63 4 22-25 22-93v-155h51v151c-1 38 19 59 55 60 90 1 49-130 58-211h52v153" id="bm"/><path fill="#333" d="M24-248c120-7 223 5 221 122C244-46 201 0 124 0H24v-248zM76-40c74 7 117-18 117-86 0-67-45-88-117-82v168" id="bn"/><g id="o"><use transform="matrix(0.04938271604938272,0,0,0.04938271604938272,0,0)" xlink:href="#ak"/><use transform="matrix(0.04938271604938272,0,0,0.04938271604938272,12.790123456790125,0)" xlink:href="#bl"/><use transform="matrix(0.04938271604938272,0,0,0.04938271604938272,25.58024691358025,0)" xlink:href="#bm"/><use transform="matrix(0.04938271604938272,0,0,0.04938271604938272,38.370370370370374,0)" xlink:href="#bn"/></g><path d="M24-248c93 1 206-16 204 79-1 75-69 88-152 82V0H24v-248zm52 121c47 0 100 7 100-41 0-47-54-39-100-39v80" id="bo"/><path d="M25 0v-261h50V0H25" id="bp"/><path d="M121-226c-27-7-43 5-38 36h38v33H83V0H34v-157H6v-33h28c-9-59 32-81 87-68v32" id="bq"/><path d="M220-157c-53 9-28 100-34 157h-49v-107c1-27-5-49-29-50C55-147 81-57 75 0H25l-1-190h47c2 12-1 28 3 38 10-53 101-56 108 0 13-22 24-43 59-42 82 1 51 116 57 194h-49v-107c-1-25-5-48-29-50" id="br"/><g id="p"><use transform="matrix(0.05,0,0,0.05,0,0)" xlink:href="#bo"/><use transform="matrix(0.05,0,0,0.05,12,0)" xlink:href="#bp"/><use transform="matrix(0.05,0,0,0.05,17,0)" xlink:href="#ax"/><use transform="matrix(0.05,0,0,0.05,27,0)" xlink:href="#aw"/><use transform="matrix(0.05,0,0,0.05,32.95,0)" xlink:href="#ax"/><use transform="matrix(0.05,0,0,0.05,42.95,0)" xlink:href="#bq"/><use transform="matrix(0.05,0,0,0.05,48.900000000000006,0)" xlink:href="#av"/><use transform="matrix(0.05,0,0,0.05,59.85,0)" xlink:href="#ay"/><use transform="matrix(0.05,0,0,0.05,66.85000000000001,0)" xlink:href="#br"/><use transform="matrix(0.05,0,0,0.05,82.85000000000001,0)" xlink:href="#ax"/></g><path d="M185-48c-13 30-37 53-82 52C43 2 14-33 14-96s30-98 90-98c62 0 83 45 84 108H66c0 31 8 55 39 56 18 0 30-7 34-22zm-45-69c5-46-57-63-70-21-2 6-4 13-4 21h74" id="bs"/><g id="q"><use transform="matrix(0.05,0,0,0.05,0,0)" xlink:href="#aE"/><use transform="matrix(0.05,0,0,0.05,10.950000000000001,0)" xlink:href="#bs"/></g><path d="M67-125c0 53 21 87 73 88 37 1 54-22 65-47l45 17C233-25 199 4 140 4 58 4 20-42 15-125 8-235 124-281 211-232c18 10 29 29 36 50l-46 12c-8-25-30-41-62-41-52 0-71 34-72 86" id="bt"/><path d="M135-194c87-1 58 113 63 194h-50c-7-57 23-157-34-157-59 0-34 97-39 157H25l-1-190h47c2 12-1 28 3 38 12-26 28-41 61-42" id="bu"/><path d="M190-63c-7 42-38 67-86 67-59 0-84-38-90-98-12-110 154-137 174-36l-49 2c-2-19-15-32-35-32-30 0-35 28-38 64-6 74 65 87 74 30" id="bv"/><path d="M24 0v-248h52V0H24" id="bw"/><g id="r"><use transform="matrix(0.05,0,0,0.05,0,0)" xlink:href="#bt"/><use transform="matrix(0.05,0,0,0.05,12.950000000000001,0)" xlink:href="#av"/><use transform="matrix(0.05,0,0,0.05,23.900000000000002,0)" xlink:href="#bu"/><use transform="matrix(0.05,0,0,0.05,34.85,0)" xlink:href="#aw"/><use transform="matrix(0.05,0,0,0.05,40.800000000000004,0)" xlink:href="#ay"/><use transform="matrix(0.05,0,0,0.05,47.800000000000004,0)" xlink:href="#ax"/><use transform="matrix(0.05,0,0,0.05,57.800000000000004,0)" xlink:href="#bv"/><use transform="matrix(0.05,0,0,0.05,67.80000000000001,0)" xlink:href="#aw"/><use transform="matrix(0.05,0,0,0.05,73.75000000000001,0)" xlink:href="#aB"/><use transform="matrix(0.05,0,0,0.05,86.70000000000002,0)" xlink:href="#bw"/></g><path d="M205 0l-28-72H64L36 0H1l101-248h38L239 0h-34zm-38-99l-47-123c-12 45-31 82-46 123h93" id="bx"/><path d="M100-194c62-1 85 37 85 99 1 63-27 99-86 99S16-35 15-95c0-66 28-99 85-99zM99-20c44 1 53-31 53-75 0-43-8-75-51-75s-53 32-53 75 10 74 51 75zM76-211c8-23 27-35 38-54h36v5l-58 49H76" id="by"/><g id="s"><use transform="matrix(0.05,0,0,0.05,0,0)" xlink:href="#bx"/><use transform="matrix(0.05,0,0,0.05,12,0)" xlink:href="#aP"/><use transform="matrix(0.05,0,0,0.05,22,0)" xlink:href="#aQ"/><use transform="matrix(0.05,0,0,0.05,25.950000000000003,0)" xlink:href="#aK"/><use transform="matrix(0.05,0,0,0.05,29.899999999999995,0)" xlink:href="#aO"/><use transform="matrix(0.05,0,0,0.05,38.9,0)" xlink:href="#aI"/><use transform="matrix(0.05,0,0,0.05,48.9,0)" xlink:href="#aO"/><use transform="matrix(0.05,0,0,0.05,57.900000000000006,0)" xlink:href="#aK"/><use transform="matrix(0.05,0,0,0.05,61.85,0)" xlink:href="#by"/><use transform="matrix(0.05,0,0,0.05,71.85,0)" xlink:href="#aN"/></g><path d="M190 0L58-211 59 0H30v-248h39L202-35l-2-213h31V0h-41" id="bz"/><path d="M100-194c63 0 86 42 84 106H49c0 40 14 67 53 68 26 1 43-12 49-29l28 8c-11 28-37 45-77 45C44 4 14-33 15-96c1-61 26-98 85-98zm52 81c6-60-76-77-97-28-3 7-6 17-6 28h103" id="bA"/><path d="M141 0L90-78 38 0H4l68-98-65-92h35l48 74 47-74h35l-64 92 68 98h-35" id="bB"/><path d="M59-47c-2 24 18 29 38 22v24C64 9 27 4 27-40v-127H5v-23h24l9-43h21v43h35v23H59v120" id="bC"/><path d="M153-248C145-148 188 4 80 4 36 3 13-21 6-62l32-5c4 25 16 42 43 43 27 0 39-20 39-49v-147H72v-28h81" id="bD"/><path d="M185-189c-5-48-123-54-124 2 14 75 158 14 163 119 3 78-121 87-175 55-17-10-28-26-33-46l33-7c5 56 141 63 141-1 0-78-155-14-162-118-5-82 145-84 179-34 5 7 8 16 11 25" id="bE"/><g id="t"><use transform="matrix(0.05,0,0,0.05,0,0)" xlink:href="#bz"/><use transform="matrix(0.05,0,0,0.05,12.950000000000001,0)" xlink:href="#bA"/><use transform="matrix(0.05,0,0,0.05,22.950000000000003,0)" xlink:href="#bB"/><use transform="matrix(0.05,0,0,0.05,31.950000000000003,0)" xlink:href="#bC"/><use transform="matrix(0.05,0,0,0.05,36.95,0)" xlink:href="#bD"/><use transform="matrix(0.05,0,0,0.05,45.95,0)" xlink:href="#bE"/></g><path d="M615-1370c385 0 542 273 542 691 0 230-47 404-140 522S790 20 615 20C231 20 72-262 72-679c0-419 158-691 543-691zM797-330c77-133 78-564 0-695-44-73-101-113-182-113s-139 40-183 114c-79 133-78 560 0 694 45 77 102 118 183 118s138-41 182-118" id="bF"/><path d="M800 425c-1-198 1-404 0-596C746-55 645 20 483 20 183 20 97-237 97-543c0-242 74-429 227-518 49-28 105-42 168-42 163 0 248 85 306 197h4c1-59 6-126 15-176h272c-4 67-9 153-8 236V425H800zm-66-671c93-114 91-467-2-586-35-45-76-79-141-79-64 0-113 31-149 92-69 115-66 440 4 561 39 68 130 111 220 70 25-11 46-31 68-58" id="bG"/><path d="M471 20c-247 0-336-169-336-415v-687h281v607c4 148 31 285 172 285 152 0 207-150 207-312v-580h281c4 359-9 736 8 1082H816c-7-63-11-146-12-215h-5C736-76 644 20 471 20" id="bH"/><g id="u"><use transform="matrix(0.009114583333333334,0,0,0.009114583333333334,0,0)" xlink:href="#bF"/><use transform="matrix(0.009114583333333334,0,0,0.009114583333333334,11.201822916666668,0)" xlink:href="#bb"/><use transform="matrix(0.009114583333333334,0,0,0.009114583333333334,22.403645833333336,0)" xlink:href="#bG"/><use transform="matrix(0.009114583333333334,0,0,0.009114583333333334,33.60546875,0)" xlink:href="#bH"/><use transform="matrix(0.009114583333333334,0,0,0.009114583333333334,44.80729166666667,0)" xlink:href="#aZ"/><use transform="matrix(0.009114583333333334,0,0,0.009114583333333334,56.00911458333334,0)" xlink:href="#bc"/><use transform="matrix(0.009114583333333334,0,0,0.009114583333333334,67.21093750000001,0)" xlink:href="#be"/><use transform="matrix(0.009114583333333334,0,0,0.009114583333333334,78.41276041666669,0)" xlink:href="#aW"/><use transform="matrix(0.009114583333333334,0,0,0.009114583333333334,89.61458333333336,0)" xlink:href="#bf"/><use transform="matrix(0.009114583333333334,0,0,0.009114583333333334,100.81640625000003,0)" xlink:href="#bg"/><use transform="matrix(0.009114583333333334,0,0,0.009114583333333334,112.01822916666671,0)" xlink:href="#bh"/><use transform="matrix(0.009114583333333334,0,0,0.009114583333333334,123.22005208333337,0)" xlink:href="#bd"/></g><path d="M385-1193v494h676v158H385V0H194v-1349h891v156H385" id="bI"/><path d="M1000-272c3 95 12 159 101 161 21 0 41-3 59-7V-6c-44 10-86 16-139 16-141 2-191-84-197-217h-6C748-76 648 20 446 20c-207 0-318-120-318-322 0-266 194-348 454-354l236-4c12-191-40-305-222-305-140 0-220 47-232 172l-188-17c33-204 181-292 423-292 255 0 401 118 401 364v466zm-683-27c0 109 63 184 175 182 166-3 259-96 306-217 24-65 20-120 20-200-232 7-501-28-501 235" id="bJ"/><path d="M873-819c-18-114-119-146-250-146-163 0-245 50-245 151 0 151 170 148 294 185 182 54 388 94 388 320 0 240-189 325-439 329-245 4-410-69-454-268l159-31c24 133 136 168 295 165 144-2 270-31 270-171 0-164-195-160-331-202-167-52-350-87-350-299 0-218 173-315 413-313 220 2 373 77 412 260" id="bK"/><path d="M682 16c-209 0-323-80-324-285v-671H190v-142h170l58-282h120v282h432v142H538v652c2 114 60 155 182 155 106 0 209-16 297-34v137C921-4 806 16 682 16" id="bL"/><path d="M1034 0L896-382H333L196 0H0l510-1349h217L1228 0h-194zM847-531c-77-225-157-447-231-674-69 231-154 451-232 674h463" id="bM"/><path d="M622-1349c296 4 497 117 497 404 0 282-193 424-485 431H353V0H162v-1349h460zm-15 684c195-3 320-88 320-277 0-184-129-255-328-254H353v531h254" id="bN"/><path d="M202-1349h823v156H709v1037h316V0H202v-156h316v-1037H202v-156" id="bO"/><g id="v"><use transform="matrix(0.009114583333333334,0,0,0.009114583333333334,0,0)" xlink:href="#bI"/><use transform="matrix(0.009114583333333334,0,0,0.009114583333333334,11.201822916666668,0)" xlink:href="#bJ"/><use transform="matrix(0.009114583333333334,0,0,0.009114583333333334,22.403645833333336,0)" xlink:href="#bK"/><use transform="matrix(0.009114583333333334,0,0,0.009114583333333334,33.60546875,0)" xlink:href="#bL"/><use transform="matrix(0.009114583333333334,0,0,0.009114583333333334,44.80729166666667,0)" xlink:href="#bM"/><use transform="matrix(0.009114583333333334,0,0,0.009114583333333334,56.00911458333334,0)" xlink:href="#bN"/><use transform="matrix(0.009114583333333334,0,0,0.009114583333333334,67.21093750000001,0)" xlink:href="#bO"/></g><path d="M137-138c1-29-70-34-71-4 15 46 118 7 119 86 1 83-164 76-172 9l43-7c4 19 20 25 44 25 33 8 57-30 24-41C81-84 22-81 20-136c-2-80 154-74 161-7" id="bP"/><g id="w"><use transform="matrix(0.05,0,0,0.05,0,0)" xlink:href="#bo"/><use transform="matrix(0.05,0,0,0.05,12,0)" xlink:href="#ay"/><use transform="matrix(0.05,0,0,0.05,19,0)" xlink:href="#av"/><use transform="matrix(0.05,0,0,0.05,29.950000000000003,0)" xlink:href="#bv"/><use transform="matrix(0.05,0,0,0.05,39.95,0)" xlink:href="#bs"/><use transform="matrix(0.05,0,0,0.05,49.95,0)" xlink:href="#bP"/><use transform="matrix(0.05,0,0,0.05,59.95,0)" xlink:href="#ax"/><use transform="matrix(0.05,0,0,0.05,69.95,0)" xlink:href="#br"/><use transform="matrix(0.05,0,0,0.05,85.95,0)" xlink:href="#az"/><use transform="matrix(0.05,0,0,0.05,90.95,0)" xlink:href="#bs"/><use transform="matrix(0.05,0,0,0.05,100.95,0)" xlink:href="#bu"/><use transform="matrix(0.05,0,0,0.05,111.9,0)" xlink:href="#aw"/><use transform="matrix(0.05,0,0,0.05,117.85000000000001,0)" xlink:href="#av"/></g><path d="M24-248c120-7 223 5 221 122C244-46 201 0 124 0H24v-248zM76-40c74 7 117-18 117-86 0-67-45-88-117-82v168" id="bQ"/><path d="M85 4C-2 5 27-109 22-190h50c7 57-23 150 33 157 60-5 35-97 40-157h50l1 190h-47c-2-12 1-28-3-38-12 25-28 42-61 42" id="bR"/><g id="x"><use transform="matrix(0.05,0,0,0.05,0,0)" xlink:href="#bQ"/><use transform="matrix(0.05,0,0,0.05,12.950000000000001,0)" xlink:href="#av"/><use transform="matrix(0.05,0,0,0.05,23.900000000000002,0)" xlink:href="#bv"/><use transform="matrix(0.05,0,0,0.05,33.900000000000006,0)" xlink:href="#bR"/><use transform="matrix(0.05,0,0,0.05,44.85000000000001,0)" xlink:href="#br"/><use transform="matrix(0.05,0,0,0.05,60.85,0)" xlink:href="#bs"/><use transform="matrix(0.05,0,0,0.05,70.85000000000001,0)" xlink:href="#bu"/><use transform="matrix(0.05,0,0,0.05,81.80000000000001,0)" xlink:href="#aw"/><use transform="matrix(0.05,0,0,0.05,87.75000000000001,0)" xlink:href="#ax"/><use transform="matrix(0.05,0,0,0.05,97.75000000000001,0)" xlink:href="#bp"/></g><path d="M30 0v-248h33v221h125V0H30" id="bS"/><path d="M210-169c-67 3-38 105-44 169h-31v-121c0-29-5-50-35-48C34-165 62-65 56 0H25l-1-190h30c1 10-1 24 2 32 10-44 99-50 107 0 11-21 27-35 58-36 85-2 47 119 55 194h-31v-121c0-29-5-49-35-48" id="bT"/><path d="M85-194c31 0 48 13 60 33l-1-100h32l1 261h-30c-2-10 0-23-3-31C134-8 116 4 85 4 32 4 16-35 15-94c0-66 23-100 70-100zm9 24c-40 0-46 34-46 75 0 40 6 74 45 74 42 0 51-32 51-76 0-42-9-74-50-73" id="bU"/><g id="y"><use transform="matrix(0.05,0,0,0.05,0,0)" xlink:href="#bS"/><use transform="matrix(0.05,0,0,0.05,10,0)" xlink:href="#aQ"/><use transform="matrix(0.05,0,0,0.05,13.949999999999998,0)" xlink:href="#aI"/><use transform="matrix(0.05,0,0,0.05,23.95,0)" xlink:href="#bT"/><use transform="matrix(0.05,0,0,0.05,38.9,0)" xlink:href="#aI"/><use transform="matrix(0.05,0,0,0.05,48.9,0)" xlink:href="#aK"/><use transform="matrix(0.05,0,0,0.05,52.85,0)" xlink:href="#aN"/><use transform="matrix(0.05,0,0,0.05,62.85,0)" xlink:href="#bU"/><use transform="matrix(0.05,0,0,0.05,72.85,0)" xlink:href="#bA"/><use transform="matrix(0.05,0,0,0.05,82.85,0)" xlink:href="#bB"/></g><path d="M76-208v77h127v40H76V0H24v-248h183v40H76" id="bV"/><path d="M25-224v-37h50v37H25zM75 22c2 45-34 59-81 51V38c22 5 31-5 31-27v-201h50V22" id="bW"/><g id="z"><use transform="matrix(0.05,0,0,0.05,0,0)" xlink:href="#bV"/><use transform="matrix(0.05,0,0,0.05,10.950000000000001,0)" xlink:href="#bp"/><use transform="matrix(0.05,0,0,0.05,15.950000000000001,0)" xlink:href="#bR"/><use transform="matrix(0.05,0,0,0.05,26.900000000000002,0)" xlink:href="#bW"/><use transform="matrix(0.05,0,0,0.05,31.900000000000002,0)" xlink:href="#av"/></g><path d="M128 0H69L1-190h53L99-40l48-150h52" id="bX"/><g id="A"><use transform="matrix(0.05,0,0,0.05,0,0)" xlink:href="#bt"/><use transform="matrix(0.05,0,0,0.05,12.950000000000001,0)" xlink:href="#av"/><use transform="matrix(0.05,0,0,0.05,23.900000000000002,0)" xlink:href="#bu"/><use transform="matrix(0.05,0,0,0.05,34.85,0)" xlink:href="#bX"/><use transform="matrix(0.05,0,0,0.05,44.85,0)" xlink:href="#bs"/><use transform="matrix(0.05,0,0,0.05,54.85,0)" xlink:href="#ay"/><use transform="matrix(0.05,0,0,0.05,61.85,0)" xlink:href="#bP"/><use transform="matrix(0.05,0,0,0.05,71.85,0)" xlink:href="#ax"/><use transform="matrix(0.05,0,0,0.05,81.85,0)" xlink:href="#bv"/><use transform="matrix(0.05,0,0,0.05,91.85,0)" xlink:href="#az"/><use transform="matrix(0.05,0,0,0.05,96.85,0)" xlink:href="#av"/><use transform="matrix(0.05,0,0,0.05,107.80000000000001,0)" xlink:href="#bu"/><use transform="matrix(0.05,0,0,0.05,118.75,0)" xlink:href="#ax"/><use transform="matrix(0.05,0,0,0.05,128.75,0)" xlink:href="#bp"/></g><path d="M177-190C167-65 218 103 67 71c-23-6-38-20-44-43l32-5c15 47 100 32 89-28v-30C133-14 115 1 83 1 29 1 15-40 15-95c0-56 16-97 71-98 29-1 48 16 59 35 1-10 0-23 2-32h30zM94-22c36 0 50-32 50-73 0-42-14-75-50-75-39 0-46 34-46 75s6 73 46 73" id="bY"/><path d="M106-169C34-169 62-67 57 0H25v-261h32l-1 103c12-21 28-36 61-36 89 0 53 116 60 194h-32v-121c2-32-8-49-39-48" id="bZ"/><g id="B"><use transform="matrix(0.05,0,0,0.05,0,0)" xlink:href="#bS"/><use transform="matrix(0.05,0,0,0.05,10,0)" xlink:href="#aI"/><use transform="matrix(0.05,0,0,0.05,20,0)" xlink:href="#aN"/><use transform="matrix(0.05,0,0,0.05,30,0)" xlink:href="#bY"/><use transform="matrix(0.05,0,0,0.05,40,0)" xlink:href="#bY"/><use transform="matrix(0.05,0,0,0.05,50,0)" xlink:href="#aJ"/><use transform="matrix(0.05,0,0,0.05,55.95,0)" xlink:href="#aI"/><use transform="matrix(0.05,0,0,0.05,65.95,0)" xlink:href="#aP"/><use transform="matrix(0.05,0,0,0.05,75.95,0)" xlink:href="#bZ"/></g><path d="M114-157C55-157 80-60 75 0H25v-261h50l-1 109c12-26 28-41 61-42 86-1 58 113 63 194h-50c-7-57 23-157-34-157" id="ca"/><g id="C"><use transform="matrix(0.05,0,0,0.05,0,0)" xlink:href="#aB"/><use transform="matrix(0.05,0,0,0.05,12.950000000000001,0)" xlink:href="#bR"/><use transform="matrix(0.05,0,0,0.05,23.900000000000002,0)" xlink:href="#aw"/><use transform="matrix(0.05,0,0,0.05,29.85,0)" xlink:href="#ca"/></g><use transform="matrix(0.05,0,0,0.05,0,0)" xlink:href="#aA" id="D"/><path d="M67-125c0 54 23 88 75 88 28 0 53-7 68-21v-34h-60v-39h108v91C232-14 192 4 140 4 58 4 20-42 15-125 8-236 126-280 215-234c19 10 29 26 37 47l-47 15c-11-23-29-39-63-39-53 1-75 33-75 86" id="cb"/><path d="M110-194c64 0 96 36 96 99 0 64-35 99-97 99-61 0-95-36-95-99 0-62 34-99 96-99zm-1 164c35 0 45-28 45-65 0-40-10-65-43-65-34 0-45 26-45 65 0 36 10 65 43 65zM81-208v-5l45-51h45v8l-60 48H81" id="cc"/><g id="E"><use transform="matrix(0.05,0,0,0.05,0,0)" xlink:href="#cb"/><use transform="matrix(0.05,0,0,0.05,14,0)" xlink:href="#bs"/><use transform="matrix(0.05,0,0,0.05,24,0)" xlink:href="#bP"/><use transform="matrix(0.05,0,0,0.05,34,0)" xlink:href="#aw"/><use transform="matrix(0.05,0,0,0.05,39.95,0)" xlink:href="#az"/><use transform="matrix(0.05,0,0,0.05,44.95,0)" xlink:href="#cc"/><use transform="matrix(0.05,0,0,0.05,55.900000000000006,0)" xlink:href="#bu"/></g><g id="F"><use transform="matrix(0.05,0,0,0.05,0,0)" xlink:href="#aE"/><use transform="matrix(0.05,0,0,0.05,10.950000000000001,0)" xlink:href="#bs"/><use transform="matrix(0.05,0,0,0.05,20.950000000000003,0)" xlink:href="#bp"/></g><path d="M238-95c0 69-44 99-111 99C63 4 22-25 22-93v-155h51v151c-1 38 19 59 55 60 90 1 49-130 58-211h52v153" id="cd"/><g id="G"><use transform="matrix(0.05,0,0,0.05,0,0)" xlink:href="#cd"/><use transform="matrix(0.05,0,0,0.05,12.950000000000001,0)" xlink:href="#bP"/><use transform="matrix(0.05,0,0,0.05,22.950000000000003,0)" xlink:href="#bR"/><use transform="matrix(0.05,0,0,0.05,33.900000000000006,0)" xlink:href="#ax"/><use transform="matrix(0.05,0,0,0.05,43.900000000000006,0)" xlink:href="#ay"/><use transform="matrix(0.05,0,0,0.05,50.900000000000006,0)" xlink:href="#az"/><use transform="matrix(0.05,0,0,0.05,55.900000000000006,0)" xlink:href="#av"/></g><path d="M140-251c81 0 123 46 123 126C263-46 219 4 140 4 59 4 17-45 17-125s42-126 123-126zm0 227c63 0 89-41 89-101s-29-99-89-99c-61 0-89 39-89 99S79-25 140-24" id="ce"/><path d="M101-251c82-7 93 87 43 132L82-64C71-53 59-42 53-27h129V0H18c2-99 128-94 128-182 0-28-16-43-45-43s-46 15-49 41l-32-3c6-41 34-60 81-64" id="cf"/><g id="H"><use transform="matrix(0.05,0,0,0.05,0,0)" xlink:href="#ce"/><use transform="matrix(0.05,0,0,0.05,14,0)" xlink:href="#bx"/><use transform="matrix(0.05,0,0,0.05,26,0)" xlink:href="#aH"/><use transform="matrix(0.05,0,0,0.05,36,0)" xlink:href="#bC"/><use transform="matrix(0.05,0,0,0.05,41,0)" xlink:href="#bZ"/><use transform="matrix(0.05,0,0,0.05,51,0)" xlink:href="#cf"/></g><path fill="#333" d="M220-157c-53 9-28 100-34 157h-49v-107c1-27-5-49-29-50C55-147 81-57 75 0H25l-1-190h47c2 12-1 28 3 38 10-53 101-56 108 0 13-22 24-43 59-42 82 1 51 116 57 194h-49v-107c-1-25-5-48-29-50" id="cg"/><g id="I"><use transform="matrix(0.04938271604938272,0,0,0.04938271604938272,0,0)" xlink:href="#aR"/><use transform="matrix(0.04938271604938272,0,0,0.04938271604938272,11.851851851851853,0)" xlink:href="#aq"/><use transform="matrix(0.04938271604938272,0,0,0.04938271604938272,17.728395061728396,0)" xlink:href="#aU"/><use transform="matrix(0.04938271604938272,0,0,0.04938271604938272,24.641975308641975,0)" xlink:href="#aT"/><use transform="matrix(0.04938271604938272,0,0,0.04938271604938272,34.51851851851852,0)" xlink:href="#ar"/><use transform="matrix(0.04938271604938272,0,0,0.04938271604938272,44.39506172839506,0)" xlink:href="#cg"/></g><path fill="#333" d="M24-248c93 1 206-16 204 79-1 75-69 88-152 82V0H24v-248zm52 121c47 0 100 7 100-41 0-47-54-39-100-39v80" id="ch"/><path fill="#333" d="M135-194c53 0 70 44 70 98 0 56-19 98-73 100-31 1-45-17-59-34 3 33 2 69 2 105H25l-1-265h48c2 10 0 23 3 31 11-24 29-35 60-35zM114-30c33 0 39-31 40-66 0-38-9-64-40-64-56 0-55 130 0 130" id="ci"/><g id="J"><use transform="matrix(0.04938271604938272,0,0,0.04938271604938272,0,0)" xlink:href="#ch"/><use transform="matrix(0.04938271604938272,0,0,0.04938271604938272,11.851851851851853,0)" xlink:href="#aU"/><use transform="matrix(0.04938271604938272,0,0,0.04938271604938272,18.765432098765434,0)" xlink:href="#al"/><use transform="matrix(0.04938271604938272,0,0,0.04938271604938272,29.58024691358025,0)" xlink:href="#cg"/><use transform="matrix(0.04938271604938272,0,0,0.04938271604938272,45.382716049382715,0)" xlink:href="#ci"/><use transform="matrix(0.04938271604938272,0,0,0.04938271604938272,56.19753086419754,0)" xlink:href="#aq"/></g><path fill="#333" d="M230 0l2-204L168 0h-37L68-204 70 0H24v-248h70l56 185 57-185h69V0h-46" id="cj"/><g id="K"><use transform="matrix(0.04938271604938272,0,0,0.04938271604938272,0,0)" xlink:href="#cj"/><use transform="matrix(0.04938271604938272,0,0,0.04938271604938272,14.765432098765434,0)" xlink:href="#ao"/><use transform="matrix(0.04938271604938272,0,0,0.04938271604938272,25.58024691358025,0)" xlink:href="#ap"/><use transform="matrix(0.04938271604938272,0,0,0.04938271604938272,30.518518518518523,0)" xlink:href="#aq"/><use transform="matrix(0.04938271604938272,0,0,0.04938271604938272,36.39506172839506,0)" xlink:href="#bk"/><use transform="matrix(0.04938271604938272,0,0,0.04938271604938272,41.333333333333336,0)" xlink:href="#ci"/><use transform="matrix(0.04938271604938272,0,0,0.04938271604938272,52.14814814814815,0)" xlink:href="#ar"/><use transform="matrix(0.04938271604938272,0,0,0.04938271604938272,62.0246913580247,0)" xlink:href="#aU"/><use transform="matrix(0.04938271604938272,0,0,0.04938271604938272,68.93827160493828,0)" xlink:href="#aq"/></g><path fill="#333" d="M76-208v77h127v40H76V0H24v-248h183v40H76" id="ck"/><g id="L"><use transform="matrix(0.04938271604938272,0,0,0.04938271604938272,0,0)" xlink:href="#ck"/><use transform="matrix(0.04938271604938272,0,0,0.04938271604938272,10.814814814814815,0)" xlink:href="#bk"/><use transform="matrix(0.04938271604938272,0,0,0.04938271604938272,15.753086419753087,0)" xlink:href="#ap"/><use transform="matrix(0.04938271604938272,0,0,0.04938271604938272,20.69135802469136,0)" xlink:href="#aT"/></g><path fill="#333" d="M84 4C32 4 15-41 15-95c0-55 18-99 73-99 29 0 47 12 58 34l2-30h48l-1 265h-49V-32C136-9 114 4 84 4zm21-34c32 0 41-29 41-66 0-36-9-64-40-64-33 0-39 30-40 65 0 43 13 65 39 65" id="cl"/><g id="M"><use transform="matrix(0.04938271604938272,0,0,0.04938271604938272,0,0)" xlink:href="#bl"/><use transform="matrix(0.04938271604938272,0,0,0.04938271604938272,12.790123456790125,0)" xlink:href="#aT"/><use transform="matrix(0.04938271604938272,0,0,0.04938271604938272,22.66666666666667,0)" xlink:href="#cl"/><use transform="matrix(0.04938271604938272,0,0,0.04938271604938272,33.48148148148149,0)" xlink:href="#ao"/><use transform="matrix(0.04938271604938272,0,0,0.04938271604938272,44.296296296296305,0)" xlink:href="#aT"/><use transform="matrix(0.04938271604938272,0,0,0.04938271604938272,54.17283950617284,0)" xlink:href="#an"/><use transform="matrix(0.04938271604938272,0,0,0.04938271604938272,64.0493827160494,0)" xlink:href="#aq"/></g><path fill="#333" d="M176-78C186 10 51 31 16-35c-5-9-9-19-11-32l52-8c4 21 12 37 35 38 23 0 32-16 32-40v-130H75v-41h101v170" id="cm"/><path fill="#333" d="M275 0h-61l-44-196L126 0H64L0-248h53L97-49l45-199h58l43 199 44-199h52" id="cn"/><path fill="#333" d="M136-208V0H84v-208H4v-40h212v40h-80" id="co"/><g id="N"><use transform="matrix(0.04938271604938272,0,0,0.04938271604938272,0,0)" xlink:href="#cm"/><use transform="matrix(0.04938271604938272,0,0,0.04938271604938272,9.876543209876544,0)" xlink:href="#cn"/><use transform="matrix(0.04938271604938272,0,0,0.04938271604938272,26.617283950617285,0)" xlink:href="#co"/></g><path d="M157-1349h916v228H757v893h316V0H157v-228h316v-893H157v-228" id="cp"/><path d="M1229 0H935l-92-330H387L295 0H0l443-1349h344zM615-1167c-46 213-110 412-166 615h332c-56-204-119-401-166-615" id="cq"/><g id="O"><use transform="matrix(0.009114583333333334,0,0,0.009114583333333334,0,0)" xlink:href="#cp"/><use transform="matrix(0.009114583333333334,0,0,0.009114583333333334,11.201822916666668,0)" xlink:href="#cq"/></g><g id="P"><use transform="matrix(0.009114583333333334,0,0,0.009114583333333334,0,0)" xlink:href="#ba"/><use transform="matrix(0.009114583333333334,0,0,0.009114583333333334,11.201822916666668,0)" xlink:href="#aZ"/><use transform="matrix(0.009114583333333334,0,0,0.009114583333333334,22.403645833333336,0)" xlink:href="#bb"/><use transform="matrix(0.009114583333333334,0,0,0.009114583333333334,33.60546875,0)" xlink:href="#bc"/><use transform="matrix(0.009114583333333334,0,0,0.009114583333333334,44.80729166666667,0)" xlink:href="#bg"/><use transform="matrix(0.009114583333333334,0,0,0.009114583333333334,56.00911458333334,0)" xlink:href="#bc"/><use transform="matrix(0.009114583333333334,0,0,0.009114583333333334,67.21093750000001,0)" xlink:href="#be"/><use transform="matrix(0.009114583333333334,0,0,0.009114583333333334,78.41276041666669,0)" xlink:href="#aZ"/><use transform="matrix(0.009114583333333334,0,0,0.009114583333333334,89.61458333333336,0)" xlink:href="#bd"/><use transform="matrix(0.009114583333333334,0,0,0.009114583333333334,100.81640625000003,0)" xlink:href="#bf"/><use transform="matrix(0.009114583333333334,0,0,0.009114583333333334,112.01822916666671,0)" xlink:href="#bg"/><use transform="matrix(0.009114583333333334,0,0,0.009114583333333334,123.22005208333337,0)" xlink:href="#aW"/></g><g id="Q"><use transform="matrix(0.05,0,0,0.05,0,0)" xlink:href="#bo"/><use transform="matrix(0.05,0,0,0.05,12,0)" xlink:href="#ax"/><use transform="matrix(0.05,0,0,0.05,22,0)" xlink:href="#ay"/><use transform="matrix(0.05,0,0,0.05,29,0)" xlink:href="#bP"/><use transform="matrix(0.05,0,0,0.05,39,0)" xlink:href="#bs"/><use transform="matrix(0.05,0,0,0.05,49,0)" xlink:href="#ay"/></g><g id="R"><use transform="matrix(0.05,0,0,0.05,0,0)" xlink:href="#aE"/><use transform="matrix(0.05,0,0,0.05,10.950000000000001,0)" xlink:href="#bs"/></g><g id="S"><use transform="matrix(0.05,0,0,0.05,0,0)" xlink:href="#aE"/><use transform="matrix(0.05,0,0,0.05,10.950000000000001,0)" xlink:href="#av"/><use transform="matrix(0.05,0,0,0.05,21.900000000000002,0)" xlink:href="#bv"/><use transform="matrix(0.05,0,0,0.05,31.900000000000002,0)" xlink:href="#bR"/><use transform="matrix(0.05,0,0,0.05,42.85,0)" xlink:href="#br"/><use transform="matrix(0.05,0,0,0.05,58.85,0)" xlink:href="#bs"/><use transform="matrix(0.05,0,0,0.05,68.85,0)" xlink:href="#bu"/><use transform="matrix(0.05,0,0,0.05,79.8,0)" xlink:href="#aw"/><use transform="matrix(0.05,0,0,0.05,85.75,0)" xlink:href="#av"/><use transform="matrix(0.05,0,0,0.05,96.7,0)" xlink:href="#bP"/></g><g id="T"><use transform="matrix(0.05,0,0,0.05,0,0)" xlink:href="#bS"/><use transform="matrix(0.05,0,0,0.05,10,0)" xlink:href="#aQ"/><use transform="matrix(0.05,0,0,0.05,13.949999999999998,0)" xlink:href="#aI"/><use transform="matrix(0.05,0,0,0.05,23.95,0)" xlink:href="#bT"/><use transform="matrix(0.05,0,0,0.05,38.9,0)" xlink:href="#aI"/><use transform="matrix(0.05,0,0,0.05,48.9,0)" xlink:href="#aM"/><use transform="matrix(0.05,0,0,0.05,60.900000000000006,0)" xlink:href="#aI"/><use transform="matrix(0.05,0,0,0.05,70.9,0)" xlink:href="#aJ"/><use transform="matrix(0.05,0,0,0.05,76.85000000000001,0)" xlink:href="#aG"/><use transform="matrix(0.05,0,0,0.05,85.85000000000001,0)" xlink:href="#bA"/></g><path d="M230 0l2-204L168 0h-37L68-204 70 0H24v-248h70l56 185 57-185h69V0h-46" id="cr"/><g id="U"><use transform="matrix(0.05,0,0,0.05,0,0)" xlink:href="#cr"/><use transform="matrix(0.05,0,0,0.05,14.950000000000001,0)" xlink:href="#av"/><use transform="matrix(0.05,0,0,0.05,25.900000000000002,0)" xlink:href="#aE"/><use transform="matrix(0.05,0,0,0.05,36.85,0)" xlink:href="#bs"/><use transform="matrix(0.05,0,0,0.05,46.85,0)" xlink:href="#bp"/><use transform="matrix(0.05,0,0,0.05,51.85,0)" xlink:href="#av"/></g><path d="M24 0v-248h52v208h133V0H24" id="cs"/><g id="V"><use transform="matrix(0.05,0,0,0.05,0,0)" xlink:href="#cs"/><use transform="matrix(0.05,0,0,0.05,10.950000000000001,0)" xlink:href="#cs"/><use transform="matrix(0.05,0,0,0.05,21.900000000000002,0)" xlink:href="#cr"/></g><path d="M143 4C61 4 22-44 18-125c-5-107 100-154 193-111 17 8 29 25 37 43l-32 9c-13-25-37-40-76-40-61 0-88 39-88 99 0 61 29 100 91 101 35 0 62-11 79-27v-45h-74v-28h105v86C228-13 192 4 143 4" id="ct"/><g id="W"><use transform="matrix(0.05,0,0,0.05,0,0)" xlink:href="#ct"/><use transform="matrix(0.05,0,0,0.05,14,0)" xlink:href="#bA"/><use transform="matrix(0.05,0,0,0.05,24,0)" xlink:href="#bT"/><use transform="matrix(0.05,0,0,0.05,38.95,0)" xlink:href="#aK"/><use transform="matrix(0.05,0,0,0.05,42.900000000000006,0)" xlink:href="#aN"/><use transform="matrix(0.05,0,0,0.05,52.900000000000006,0)" xlink:href="#aK"/></g><path d="M182-130c37 4 62 22 62 59C244 23 116-4 24 0v-248c84 5 203-23 205 63 0 31-19 50-47 55zM76-148c40-3 101 13 101-30 0-44-60-28-101-31v61zm0 110c48-3 116 14 116-37 0-48-69-32-116-35v72" id="cu"/><g id="X"><use transform="matrix(0.05555555555555555,0,0,0.05555555555555555,0,0)" xlink:href="#cu"/><use transform="matrix(0.05555555555555555,0,0,0.05555555555555555,14.388888888888888,0)" xlink:href="#ax"/><use transform="matrix(0.05555555555555555,0,0,0.05555555555555555,25.5,0)" xlink:href="#bP"/><use transform="matrix(0.05555555555555555,0,0,0.05555555555555555,36.611111111111114,0)" xlink:href="#bs"/></g><g id="Y"><use transform="matrix(0.05555555555555555,0,0,0.05555555555555555,0,0)" xlink:href="#aE"/><use transform="matrix(0.05555555555555555,0,0,0.05555555555555555,12.166666666666666,0)" xlink:href="#bs"/></g><g id="Z"><use transform="matrix(0.05555555555555555,0,0,0.05555555555555555,0,0)" xlink:href="#bQ"/><use transform="matrix(0.05555555555555555,0,0,0.05555555555555555,14.388888888888888,0)" xlink:href="#ax"/><use transform="matrix(0.05555555555555555,0,0,0.05555555555555555,25.5,0)" xlink:href="#aw"/><use transform="matrix(0.05555555555555555,0,0,0.05555555555555555,32.111111111111114,0)" xlink:href="#av"/><use transform="matrix(0.05555555555555555,0,0,0.05555555555555555,44.27777777777778,0)" xlink:href="#bP"/></g><path d="M140-251c81 0 123 46 123 126C263-53 228-8 163 1c7 30 30 48 69 40v23c-55 16-95-15-103-61C56-3 17-48 17-125c0-80 42-126 123-126zm0 227c63 0 89-41 89-101s-29-99-89-99c-61 0-89 39-89 99S79-25 140-24" id="cv"/><g id="aa"><use transform="matrix(0.04320987654320988,0,0,0.04320987654320988,0,0)" xlink:href="#aM"/><use transform="matrix(0.04320987654320988,0,0,0.04320987654320988,10.370370370370372,0)" xlink:href="#aL"/><use transform="matrix(0.04320987654320988,0,0,0.04320987654320988,19.01234567901235,0)" xlink:href="#aG"/><use transform="matrix(0.04320987654320988,0,0,0.04320987654320988,26.790123456790127,0)" xlink:href="#bC"/><use transform="matrix(0.04320987654320988,0,0,0.04320987654320988,31.111111111111114,0)" xlink:href="#bY"/><use transform="matrix(0.04320987654320988,0,0,0.04320987654320988,39.75308641975309,0)" xlink:href="#aJ"/><use transform="matrix(0.04320987654320988,0,0,0.04320987654320988,44.89506172839506,0)" xlink:href="#bA"/><use transform="matrix(0.04320987654320988,0,0,0.04320987654320988,53.537037037037045,0)" xlink:href="#bE"/><use transform="matrix(0.04320987654320988,0,0,0.04320987654320988,63.90740740740741,0)" xlink:href="#cv"/><use transform="matrix(0.04320987654320988,0,0,0.04320987654320988,76.00617283950618,0)" xlink:href="#bS"/></g><path fill="#333" d="M24 0v-248h195v40H76v63h132v40H76v65h150V0H24" id="cw"/><path fill="#333" d="M88-194c31-1 46 15 58 34l-1-101h50l1 261h-48c-2-10 0-23-3-31C134-8 116 4 84 4 32 4 16-41 15-95c0-56 19-97 73-99zm17 164c33 0 40-30 41-66 1-37-9-64-41-64s-38 30-39 65c0 43 13 65 39 65" id="cx"/><g id="ab"><use transform="matrix(0.04938271604938272,0,0,0.04938271604938272,0,0)" xlink:href="#cw"/><use transform="matrix(0.04938271604938272,0,0,0.04938271604938272,11.851851851851853,0)" xlink:href="#cg"/><use transform="matrix(0.04938271604938272,0,0,0.04938271604938272,27.654320987654323,0)" xlink:href="#aS"/><use transform="matrix(0.04938271604938272,0,0,0.04938271604938272,38.46913580246914,0)" xlink:href="#aT"/><use transform="matrix(0.04938271604938272,0,0,0.04938271604938272,48.345679012345684,0)" xlink:href="#cx"/><use transform="matrix(0.04938271604938272,0,0,0.04938271604938272,59.1604938271605,0)" xlink:href="#cx"/><use transform="matrix(0.04938271604938272,0,0,0.04938271604938272,69.97530864197532,0)" xlink:href="#bk"/><use transform="matrix(0.04938271604938272,0,0,0.04938271604938272,74.9135802469136,0)" xlink:href="#am"/><use transform="matrix(0.04938271604938272,0,0,0.04938271604938272,85.7283950617284,0)" xlink:href="#bj"/><use transform="matrix(0.04938271604938272,0,0,0.04938271604938272,96.54320987654322,0)" xlink:href="#an"/></g><g id="ac"><use transform="matrix(0.04938271604938272,0,0,0.04938271604938272,0,0)" xlink:href="#cj"/><use transform="matrix(0.04938271604938272,0,0,0.04938271604938272,14.765432098765434,0)" xlink:href="#aT"/><use transform="matrix(0.04938271604938272,0,0,0.04938271604938272,24.641975308641978,0)" xlink:href="#aq"/><use transform="matrix(0.04938271604938272,0,0,0.04938271604938272,30.518518518518523,0)" xlink:href="#ar"/><use transform="matrix(0.04938271604938272,0,0,0.04938271604938272,40.39506172839506,0)" xlink:href="#cx"/><use transform="matrix(0.04938271604938272,0,0,0.04938271604938272,51.20987654320988,0)" xlink:href="#ar"/><use transform="matrix(0.04938271604938272,0,0,0.04938271604938272,61.086419753086425,0)" xlink:href="#aq"/><use transform="matrix(0.04938271604938272,0,0,0.04938271604938272,66.96296296296296,0)" xlink:href="#ar"/></g><path d="M147 0H94L2-248h55l64 206c17-72 42-137 63-206h54" id="cy"/><g id="ad"><use transform="matrix(0.05555555555555555,0,0,0.05555555555555555,0,0)" xlink:href="#cy"/><use transform="matrix(0.05555555555555555,0,0,0.05555555555555555,12.222222222222221,0)" xlink:href="#bs"/><use transform="matrix(0.05555555555555555,0,0,0.05555555555555555,23.333333333333332,0)" xlink:href="#bv"/><use transform="matrix(0.05555555555555555,0,0,0.05555555555555555,34.44444444444444,0)" xlink:href="#aw"/><use transform="matrix(0.05555555555555555,0,0,0.05555555555555555,41.05555555555556,0)" xlink:href="#av"/><use transform="matrix(0.05555555555555555,0,0,0.05555555555555555,53.22222222222222,0)" xlink:href="#ay"/><use transform="matrix(0.05555555555555555,0,0,0.05555555555555555,61,0)" xlink:href="#az"/><use transform="matrix(0.05555555555555555,0,0,0.05555555555555555,66.55555555555556,0)" xlink:href="#ax"/><use transform="matrix(0.05555555555555555,0,0,0.05555555555555555,77.66666666666667,0)" xlink:href="#bp"/></g><g id="ae"><use transform="matrix(0.04320987654320988,0,0,0.04320987654320988,0,0)" xlink:href="#cv"/><use transform="matrix(0.04320987654320988,0,0,0.04320987654320988,12.098765432098766,0)" xlink:href="#bU"/><use transform="matrix(0.04320987654320988,0,0,0.04320987654320988,20.74074074074074,0)" xlink:href="#aJ"/><use transform="matrix(0.04320987654320988,0,0,0.04320987654320988,25.882716049382715,0)" xlink:href="#aI"/><use transform="matrix(0.04320987654320988,0,0,0.04320987654320988,34.52469135802469,0)" xlink:href="#aN"/><use transform="matrix(0.04320987654320988,0,0,0.04320987654320988,43.166666666666664,0)" xlink:href="#bC"/></g><path fill="#333" d="M199 0l-22-63H83L61 0H9l90-248h61L250 0h-51zm-33-102l-36-108c-10 38-24 72-36 108h72" id="cz"/><path fill="#333" d="M190-63c-7 42-38 67-86 67-59 0-84-38-90-98-12-110 154-137 174-36l-49 2c-2-19-15-32-35-32-30 0-35 28-38 64-6 74 65 87 74 30" id="cA"/><path fill="#333" d="M128 0H69L1-190h53L99-40l48-150h52" id="cB"/><g id="af"><use transform="matrix(0.04938271604938272,0,0,0.04938271604938272,0,0)" xlink:href="#cz"/><use transform="matrix(0.04938271604938272,0,0,0.04938271604938272,12.790123456790125,0)" xlink:href="#aU"/><use transform="matrix(0.04938271604938272,0,0,0.04938271604938272,19.703703703703706,0)" xlink:href="#cA"/><use transform="matrix(0.04938271604938272,0,0,0.04938271604938272,29.58024691358025,0)" xlink:href="#at"/><use transform="matrix(0.04938271604938272,0,0,0.04938271604938272,40.39506172839506,0)" xlink:href="#bk"/><use transform="matrix(0.04938271604938272,0,0,0.04938271604938272,45.333333333333336,0)" xlink:href="#cB"/><use transform="matrix(0.04938271604938272,0,0,0.04938271604938272,55.20987654320988,0)" xlink:href="#al"/><use transform="matrix(0.04938271604938272,0,0,0.04938271604938272,66.0246913580247,0)" xlink:href="#an"/></g><path fill="#333" d="M147 0L96-86 75-71V0H25v-261h50v150l67-79h53l-66 74L201 0h-54" id="cC"/><path fill="#333" d="M231 0h-52l-39-155L100 0H48L-1-190h46L77-45c9-52 24-97 36-145h53l37 145 32-145h46" id="cD"/><g id="ag"><use transform="matrix(0.04938271604938272,0,0,0.04938271604938272,0,0)" xlink:href="#cj"/><use transform="matrix(0.04938271604938272,0,0,0.04938271604938272,14.765432098765434,0)" xlink:href="#ar"/><use transform="matrix(0.04938271604938272,0,0,0.04938271604938272,24.641975308641978,0)" xlink:href="#aU"/><use transform="matrix(0.04938271604938272,0,0,0.04938271604938272,31.555555555555557,0)" xlink:href="#cC"/><use transform="matrix(0.04938271604938272,0,0,0.04938271604938272,41.4320987654321,0)" xlink:href="#cx"/><use transform="matrix(0.04938271604938272,0,0,0.04938271604938272,52.24691358024692,0)" xlink:href="#al"/><use transform="matrix(0.04938271604938272,0,0,0.04938271604938272,63.061728395061735,0)" xlink:href="#cD"/><use transform="matrix(0.04938271604938272,0,0,0.04938271604938272,76.8888888888889,0)" xlink:href="#am"/></g><path fill="#333" d="M144 0l-44-69L55 0H2l70-98-66-92h53l41 62 40-62h54l-67 91 71 99h-54" id="cE"/><g id="ah"><use transform="matrix(0.04938271604938272,0,0,0.04938271604938272,0,0)" xlink:href="#ak"/><use transform="matrix(0.04938271604938272,0,0,0.04938271604938272,12.790123456790125,0)" xlink:href="#al"/><use transform="matrix(0.04938271604938272,0,0,0.04938271604938272,23.60493827160494,0)" xlink:href="#am"/><use transform="matrix(0.04938271604938272,0,0,0.04938271604938272,34.41975308641975,0)" xlink:href="#aq"/><use transform="matrix(0.04938271604938272,0,0,0.04938271604938272,40.2962962962963,0)" xlink:href="#aT"/><use transform="matrix(0.04938271604938272,0,0,0.04938271604938272,50.17283950617284,0)" xlink:href="#cE"/><use transform="matrix(0.04938271604938272,0,0,0.04938271604938272,60.04938271604939,0)" xlink:href="#aq"/></g><g id="ai"><use transform="matrix(0.04938271604938272,0,0,0.04938271604938272,0,0)" xlink:href="#bl"/><use transform="matrix(0.04938271604938272,0,0,0.04938271604938272,12.790123456790125,0)" xlink:href="#aT"/><use transform="matrix(0.04938271604938272,0,0,0.04938271604938272,22.66666666666667,0)" xlink:href="#aq"/><use transform="matrix(0.04938271604938272,0,0,0.04938271604938272,28.54320987654322,0)" xlink:href="#aU"/><use transform="matrix(0.04938271604938272,0,0,0.04938271604938272,35.4567901234568,0)" xlink:href="#bk"/><use transform="matrix(0.04938271604938272,0,0,0.04938271604938272,40.39506172839507,0)" xlink:href="#aT"/><use transform="matrix(0.04938271604938272,0,0,0.04938271604938272,50.271604938271615,0)" xlink:href="#cB"/><use transform="matrix(0.04938271604938272,0,0,0.04938271604938272,60.14814814814817,0)" xlink:href="#ar"/><use transform="matrix(0.04938271604938272,0,0,0.04938271604938272,70.02469135802471,0)" xlink:href="#ap"/></g><path fill-opacity="0" d="M127-220V0H93v-220H8v-28h204v28h-85" id="cF"/><path fill-opacity="0" d="M100-194c63 0 86 42 84 106H49c0 40 14 67 53 68 26 1 43-12 49-29l28 8c-11 28-37 45-77 45C44 4 14-33 15-96c1-61 26-98 85-98zm52 81c6-60-76-77-97-28-3 7-6 17-6 28h103" id="cG"/><path fill-opacity="0" d="M141 0L90-78 38 0H4l68-98-65-92h35l48 74 47-74h35l-64 92 68 98h-35" id="cH"/><path fill-opacity="0" d="M59-47c-2 24 18 29 38 22v24C64 9 27 4 27-40v-127H5v-23h24l9-43h21v43h35v23H59v120" id="cI"/><g id="aj"><use transform="matrix(0.05,0,0,0.05,0,0)" xlink:href="#cF"/><use transform="matrix(0.05,0,0,0.05,8.950000000000001,0)" xlink:href="#cG"/><use transform="matrix(0.05,0,0,0.05,18.950000000000003,0)" xlink:href="#cH"/><use transform="matrix(0.05,0,0,0.05,27.950000000000003,0)" xlink:href="#cI"/></g></defs></g></svg>